<?xml version="1.0" encoding="UTF-8"?>
<!--Generator: Apple Native CoreSVG 341-->
<!DOCTYPE svg
PUBLIC "-//W3C//DTD SVG 1.1//EN"
       "http://www.w3.org/Graphics/SVG/1.1/DTD/svg11.dtd">
<svg version="1.1" xmlns="http://www.w3.org/2000/svg" xmlns:xlink="http://www.w3.org/1999/xlink" viewBox="0 0 3300 2200">
 <!--glyph: "", point size: 100.0, font version: "21.1d1e1", template writer version: "138.0.0"-->
 <style>.defaults {-sfsymbols-variable-value-mode:color;-sfsymbols-draw-reverses-motion-groups:true}

.monochrome-0 {-sfsymbols-motion-group:0;-sfsymbols-layer-tags:-89dc5a2eb64539f}

.multicolor-0:tintColor {-sfsymbols-motion-group:0;-sfsymbols-layer-tags:-89dc5a2eb64539f}

.hierarchical-0:primary {-sfsymbols-motion-group:0;-sfsymbols-layer-tags:-89dc5a2eb64539f}

.SFSymbolsPreviewWireframe {fill:none;opacity:1.0;stroke:black;stroke-width:0.5}
</style>
 <g id="Notes">
  <rect height="2200" id="artboard" style="fill:white;opacity:1" width="3300" x="0" y="0"/>
  <line style="fill:none;stroke:black;opacity:1;stroke-width:0.5;" x1="263" x2="3036" y1="292" y2="292"/>
  <text style="stroke:none;fill:black;font-family:sans-serif;font-size:13;font-weight:bold;" transform="matrix(1 0 0 1 263 322)">Weight/Scale Variations</text>
  <text style="stroke:none;fill:black;font-family:sans-serif;font-size:13;text-anchor:middle;" transform="matrix(1 0 0 1 559.711 322)">Ultralight</text>
  <text style="stroke:none;fill:black;font-family:sans-serif;font-size:13;text-anchor:middle;" transform="matrix(1 0 0 1 856.422 322)">Thin</text>
  <text style="stroke:none;fill:black;font-family:sans-serif;font-size:13;text-anchor:middle;" transform="matrix(1 0 0 1 1153.13 322)">Light</text>
  <text style="stroke:none;fill:black;font-family:sans-serif;font-size:13;text-anchor:middle;" transform="matrix(1 0 0 1 1449.84 322)">Regular</text>
  <text style="stroke:none;fill:black;font-family:sans-serif;font-size:13;text-anchor:middle;" transform="matrix(1 0 0 1 1746.56 322)">Medium</text>
  <text style="stroke:none;fill:black;font-family:sans-serif;font-size:13;text-anchor:middle;" transform="matrix(1 0 0 1 2043.27 322)">Semibold</text>
  <text style="stroke:none;fill:black;font-family:sans-serif;font-size:13;text-anchor:middle;" transform="matrix(1 0 0 1 2339.98 322)">Bold</text>
  <text style="stroke:none;fill:black;font-family:sans-serif;font-size:13;text-anchor:middle;" transform="matrix(1 0 0 1 2636.69 322)">Heavy</text>
  <text style="stroke:none;fill:black;font-family:sans-serif;font-size:13;text-anchor:middle;" transform="matrix(1 0 0 1 2933.4 322)">Black</text>
  <line style="fill:none;stroke:black;opacity:1;stroke-width:0.5;" x1="263" x2="3036" y1="1903" y2="1903"/>
  <g transform="matrix(0.2 0 0 0.2 263 1933)">
   <path d="m46.2402 4.15039c21.7773 0 39.4531-17.627 39.4531-39.4043s-17.6758-39.4043-39.4531-39.4043c-21.7285 0-39.4043 17.627-39.4043 39.4043s17.6758 39.4043 39.4043 39.4043Zm0-7.42188c-17.6758 0-31.9336-14.3066-31.9336-31.9824s14.2578-31.9824 31.9336-31.9824 31.9824 14.3066 31.9824 31.9824-14.3066 31.9824-31.9824 31.9824Zm3.61328-17.7734v-28.4668c0-2.24609-1.46484-3.75977-3.71094-3.75977-2.14844 0-3.61328 1.51367-3.61328 3.75977v28.4668c0 2.19727 1.46484 3.71094 3.61328 3.71094 2.24609 0 3.71094-1.51367 3.71094-3.71094Zm-17.8223-10.5957h28.418c2.19727 0 3.71094-1.46484 3.71094-3.61328 0-2.19727-1.51367-3.71094-3.71094-3.71094h-28.418c-2.24609 0-3.75977 1.51367-3.75977 3.71094 0 2.14844 1.51367 3.61328 3.75977 3.61328Z"/>
  </g>
  <g transform="matrix(0.2 0 0 0.2 281.506 1933)">
   <path d="m58.5449 14.5508c27.4902 0 49.8047-22.3145 49.8047-49.8047s-22.3145-49.8047-49.8047-49.8047-49.8047 22.3145-49.8047 49.8047 22.3145 49.8047 49.8047 49.8047Zm0-8.30078c-22.9492 0-41.5039-18.5547-41.5039-41.5039s18.5547-41.5039 41.5039-41.5039 41.5039 18.5547 41.5039 41.5039-18.5547 41.5039-41.5039 41.5039Zm4.05273-23.0957v-36.9141c0-2.49023-1.70898-4.19922-4.15039-4.19922-2.39258 0-4.05273 1.70898-4.05273 4.19922v36.9141c0 2.44141 1.66016 4.15039 4.05273 4.15039 2.44141 0 4.15039-1.66016 4.15039-4.15039Zm-22.5586-14.4043h36.9629c2.44141 0 4.15039-1.61133 4.15039-4.00391 0-2.44141-1.70898-4.15039-4.15039-4.15039h-36.9629c-2.49023 0-4.15039 1.70898-4.15039 4.15039 0 2.39258 1.66016 4.00391 4.15039 4.00391Z"/>
  </g>
  <g transform="matrix(0.2 0 0 0.2 304.924 1933)">
   <path d="m74.8535 28.3203c35.1074 0 63.623-28.4668 63.623-63.5742s-28.5156-63.623-63.623-63.623-63.5742 28.5156-63.5742 63.623 28.4668 63.5742 63.5742 63.5742Zm0-9.08203c-30.127 0-54.4922-24.3652-54.4922-54.4922s24.3652-54.4922 54.4922-54.4922 54.4922 24.3652 54.4922 54.4922-24.3652 54.4922-54.4922 54.4922Zm4.44336-30.3223v-48.4863c0-2.73438-1.85547-4.63867-4.54102-4.63867-2.58789 0-4.44336 1.9043-4.44336 4.63867v48.4863c0 2.68555 1.85547 4.58984 4.44336 4.58984 2.68555 0 4.54102-1.85547 4.54102-4.58984Zm-28.7109-19.7754h48.4863c2.68555 0 4.58984-1.80664 4.58984-4.39453 0-2.73438-1.85547-4.58984-4.58984-4.58984h-48.4863c-2.73438 0-4.58984 1.85547-4.58984 4.58984 0 2.58789 1.85547 4.39453 4.58984 4.39453Z"/>
  </g>
  <text style="stroke:none;fill:black;font-family:sans-serif;font-size:13;font-weight:bold;" transform="matrix(1 0 0 1 263 1953)">Design Variations</text>
  <text style="stroke:none;fill:black;font-family:sans-serif;font-size:13;" transform="matrix(1 0 0 1 263 1971)">Symbols are supported in up to nine weights and three scales.</text>
  <text style="stroke:none;fill:black;font-family:sans-serif;font-size:13;" transform="matrix(1 0 0 1 263 1989)">For optimal layout with text and other symbols, vertically align</text>
  <text style="stroke:none;fill:black;font-family:sans-serif;font-size:13;" transform="matrix(1 0 0 1 263 2007)">symbols with the adjacent text.</text>
  <line style="fill:none;stroke:#00AEEF;stroke-width:0.5;opacity:1.0;" x1="776" x2="776" y1="1919" y2="1933"/>
  <g transform="matrix(0.2 0 0 0.2 776 1933)">
   <path d="m16.5527 0.78125c2.58789 0 3.85742-0.976562 4.78516-3.71094l20.5566-57.5195h0.244141l20.6055 57.5195c0.927734 2.73438 2.19727 3.71094 4.73633 3.71094 2.58789 0 4.24805-1.5625 4.24805-4.00391 0-0.830078-0.146484-1.61133-0.537109-2.63672l-22.9004-60.9863c-1.12305-2.97852-3.125-4.49219-6.25-4.49219-3.02734 0-5.07812 1.46484-6.15234 4.44336l-22.9004 61.084c-0.390625 1.02539-0.537109 1.80664-0.537109 2.63672 0 2.44141 1.5625 3.95508 4.10156 3.95508Zm10.2051-20.9473h30.6641c2.00195 0 3.66211-1.66016 3.66211-3.66211 0-2.05078-1.66016-3.66211-3.66211-3.66211h-30.6641c-2.00195 0-3.66211 1.61133-3.66211 3.66211 0 2.00195 1.66016 3.66211 3.66211 3.66211Z"/>
  </g>
  <line style="fill:none;stroke:#00AEEF;stroke-width:0.5;opacity:1.0;" x1="792.836" x2="792.836" y1="1919" y2="1933"/>
  <text style="stroke:none;fill:black;font-family:sans-serif;font-size:13;font-weight:bold;" transform="matrix(1 0 0 1 776 1953)">Margins</text>
  <text style="stroke:none;fill:black;font-family:sans-serif;font-size:13;" transform="matrix(1 0 0 1 776 1971)">Leading and trailing margins on the left and right side of each symbol</text>
  <text style="stroke:none;fill:black;font-family:sans-serif;font-size:13;" transform="matrix(1 0 0 1 776 1989)">can be adjusted by modifying the x-location of the margin guidelines.</text>
  <text style="stroke:none;fill:black;font-family:sans-serif;font-size:13;" transform="matrix(1 0 0 1 776 2007)">Modifications are automatically applied proportionally to all</text>
  <text style="stroke:none;fill:black;font-family:sans-serif;font-size:13;" transform="matrix(1 0 0 1 776 2025)">scales and weights.</text>
  <g transform="matrix(0.2 0 0 0.2 1289 1933)">
   <path d="m14.209 13.1348 7.86133 7.86133c4.29688 4.39453 9.32617 4.10156 13.8672-1.02539l60.6934-68.2129-4.88281-4.88281-60.2539 67.6758c-1.80664 1.95312-3.4668 2.44141-5.81055 0.0976562l-5.17578-5.12695c-2.29492-2.29492-1.80664-3.95508 0.195312-5.81055l67.4805-62.1582-4.88281-4.83398-68.0664 62.5977c-4.98047 4.58984-5.32227 9.47266-1.02539 13.8184Zm44.873-97.4609c-2.05078 2.00195-2.24609 4.88281-1.07422 6.78711 1.12305 1.80664 3.4668 3.02734 6.5918 2.24609 5.85938-1.66016 12.5977-2.39258 18.8965 0.927734l-2.68555 7.12891c-1.61133 4.00391-0.732422 6.88477 1.70898 9.42383l10.2539 10.3027c2.34375 2.39258 4.54102 2.44141 7.08008 1.95312l4.44336-0.732422 2.58789 2.53906-0.195312 2.24609c-0.0976562 2.29492 0.537109 4.29688 2.7832 6.49414l3.36914 3.32031c2.29492 2.29492 5.51758 2.49023 7.8125 0.195312l12.9883-13.0371c2.29492-2.34375 2.14844-5.37109-0.195312-7.66602l-3.41797-3.41797c-2.19727-2.19727-4.05273-3.02734-6.34766-2.88086l-2.34375 0.244141-2.44141-2.44141 1.02539-4.6875c0.634766-2.73438-0.244141-4.98047-2.88086-7.61719l-11.2793-11.1816c-12.9395-12.8418-35.5957-11.0352-46.6797-0.146484Zm7.08008 2.05078c8.78906-6.39648 25.9766-5.66406 33.6914 1.95312l12.3047 12.207c1.02539 1.02539 1.2207 1.80664 0.927734 3.32031l-1.46484 6.64062 6.73828 6.68945 4.39453-0.244141c1.12305-0.0488281 1.51367 0.0488281 2.34375 0.878906l2.53906 2.49023-10.8398 10.8398-2.49023-2.49023c-0.830078-0.878906-0.976562-1.2207-0.927734-2.39258l0.292969-4.3457-6.68945-6.73828-6.83594 1.17188c-1.41602 0.292969-2.05078 0.195312-3.17383-0.878906l-8.93555-8.88672c-1.07422-1.02539-1.17188-1.70898-0.488281-3.36914l4.58984-11.4746c-6.10352-6.34766-17.041-7.51953-25.5859-4.58984-0.683594 0.244141-0.927734-0.390625-0.390625-0.78125Z"/>
  </g>
  <text style="stroke:none;fill:black;font-family:sans-serif;font-size:13;font-weight:bold;" transform="matrix(1 0 0 1 1289 1953)">Exporting</text>
  <text style="stroke:none;fill:black;font-family:sans-serif;font-size:13;" transform="matrix(1 0 0 1 1289 1971)">Symbols should be outlined when exporting to ensure the</text>
  <text style="stroke:none;fill:black;font-family:sans-serif;font-size:13;" transform="matrix(1 0 0 1 1289 1989)">design is preserved when submitting to Xcode.</text>
  <text id="template-version" style="stroke:none;fill:black;font-family:sans-serif;font-size:13;text-anchor:end;" transform="matrix(1 0 0 1 3036 1933)">Template v.7.0</text>
  <text style="stroke:none;fill:black;font-family:sans-serif;font-size:13;text-anchor:end;" transform="matrix(1 0 0 1 3036 1951)">Requires Xcode 26 or greater</text>
  <text id="descriptive-name" style="stroke:none;fill:black;font-family:sans-serif;font-size:13;text-anchor:end;" transform="matrix(1 0 0 1 3036 1969)">Generated from neuralink</text>
  <text style="stroke:none;fill:black;font-family:sans-serif;font-size:13;text-anchor:end;" transform="matrix(1 0 0 1 3036 1987)">Typeset at 100.0 points</text>
  <text style="stroke:none;fill:black;font-family:sans-serif;font-size:13;" transform="matrix(1 0 0 1 263 726)">Small</text>
  <text style="stroke:none;fill:black;font-family:sans-serif;font-size:13;" transform="matrix(1 0 0 1 263 1156)">Medium</text>
  <text style="stroke:none;fill:black;font-family:sans-serif;font-size:13;" transform="matrix(1 0 0 1 263 1586)">Large</text>
 </g>
 <g id="Guides">
  <g id="H-reference" style="fill:#27AAE1;stroke:none;" transform="matrix(1 0 0 1 339 696)">
   <path d="M0.993654 0L3.63775 0L29.3281-67.1323L30.0303-67.1323L30.0303-70.459L28.1226-70.459ZM11.6885-24.4799L46.9815-24.4799L46.2315-26.7285L12.4385-26.7285ZM55.1196 0L57.7637 0L30.6382-70.459L29.4326-70.459L29.4326-67.1323Z"/>
  </g>
  <line id="Baseline-S" style="fill:none;stroke:#27AAE1;opacity:1;stroke-width:0.5;" x1="263" x2="3036" y1="696" y2="696"/>
  <line id="Capline-S" style="fill:none;stroke:#27AAE1;opacity:1;stroke-width:0.5;" x1="263" x2="3036" y1="625.541" y2="625.541"/>
  <g id="H-reference" style="fill:#27AAE1;stroke:none;" transform="matrix(1 0 0 1 339 1126)">
   <path d="M0.993654 0L3.63775 0L29.3281-67.1323L30.0303-67.1323L30.0303-70.459L28.1226-70.459ZM11.6885-24.4799L46.9815-24.4799L46.2315-26.7285L12.4385-26.7285ZM55.1196 0L57.7637 0L30.6382-70.459L29.4326-70.459L29.4326-67.1323Z"/>
  </g>
  <line id="Baseline-M" style="fill:none;stroke:#27AAE1;opacity:1;stroke-width:0.5;" x1="263" x2="3036" y1="1126" y2="1126"/>
  <line id="Capline-M" style="fill:none;stroke:#27AAE1;opacity:1;stroke-width:0.5;" x1="263" x2="3036" y1="1055.54" y2="1055.54"/>
  <g id="H-reference" style="fill:#27AAE1;stroke:none;" transform="matrix(1 0 0 1 339 1556)">
   <path d="M0.993654 0L3.63775 0L29.3281-67.1323L30.0303-67.1323L30.0303-70.459L28.1226-70.459ZM11.6885-24.4799L46.9815-24.4799L46.2315-26.7285L12.4385-26.7285ZM55.1196 0L57.7637 0L30.6382-70.459L29.4326-70.459L29.4326-67.1323Z"/>
  </g>
  <line id="Baseline-L" style="fill:none;stroke:#27AAE1;opacity:1;stroke-width:0.5;" x1="263" x2="3036" y1="1556" y2="1556"/>
  <line id="Capline-L" style="fill:none;stroke:#27AAE1;opacity:1;stroke-width:0.5;" x1="263" x2="3036" y1="1485.54" y2="1485.54"/>
  <line id="right-margin-Black-S" style="fill:none;stroke:#00AEEF;stroke-width:0.5;opacity:1.0;" x1="2979.4" x2="2979.4" y1="600.785" y2="720.121"/>
  <line id="left-margin-Black-S" style="fill:none;stroke:#00AEEF;stroke-width:0.5;opacity:1.0;" x1="2887.4" x2="2887.4" y1="600.785" y2="720.121"/>
  <line id="right-margin-Regular-S" style="fill:none;stroke:#00AEEF;stroke-width:0.5;opacity:1.0;" x1="1495.84" x2="1495.84" y1="600.785" y2="720.121"/>
  <line id="left-margin-Regular-S" style="fill:none;stroke:#00AEEF;stroke-width:0.5;opacity:1.0;" x1="1403.84" x2="1403.84" y1="600.785" y2="720.121"/>
  <line id="right-margin-Ultralight-S" style="fill:none;stroke:#00AEEF;stroke-width:0.5;opacity:1.0;" x1="605.711" x2="605.711" y1="600.785" y2="720.121"/>
  <line id="left-margin-Ultralight-S" style="fill:none;stroke:#00AEEF;stroke-width:0.5;opacity:1.0;" x1="513.711" x2="513.711" y1="600.785" y2="720.121"/>
 </g>
 <g id="Symbols">
  <g id="Black-S" transform="matrix(1 0 0 1 2887.4 696)">
   <path class="monochrome-0 multicolor-0:tintColor hierarchical-0:primary SFSymbolsPreviewWireframe" d="M42.2278-55.982C43.2236-56.932 44.164-57.9394 45.2112-58.8365C47.3255-60.6475 49.6714-61.9906 52.4389-62.531C54.3107-62.8965 56.149-62.8223 57.987-62.3142C58.7074-62.115 59.1666-61.7066 59.3995-61.0173C59.5668-60.5221 59.7255-60.024 59.8925-59.5134C59.9611-60.1465 59.6662-60.7427 59.703-61.365C59.9312-61.4595 60.0577-61.2934 60.2022-61.21C61.4229-60.5047 62.0647-59.3459 62.6196-58.1172C63.2261-56.7744 63.6099-55.3632 63.9379-53.9335C63.7678-55.8799 63.3415-57.7545 62.3825-59.4985C63.7706-58.5552 64.6639-57.1912 65.6165-55.8598C65.4351-56.312 65.2538-56.7642 65.0724-57.2163C65.7268-56.6721 66.1871-56.0046 66.5944-55.2981C68.1217-52.649 68.5027-49.7403 68.5985-46.7468C68.7085-43.306 67.6739-40.235 65.7738-37.4185C65.1604-36.5093 64.4582-35.672 63.5481-35.0364C63.4357-34.9579 63.3468-34.8106 63.0935-34.8592C65.2576-38.0842 67.1755-41.3779 67.0626-45.4206C66.7345-44.7108 66.4928-43.963 66.0287-43.3034C66.4122-44.9978 66.2799-46.6779 66.0332-48.3572C66.0215-47.269 65.9854-46.1834 65.8947-45.0983C65.8393-44.4343 65.7086-43.7879 65.4273-43.191C64.6884-41.6235 64.1807-39.949 63.2496-38.471C62.2127-36.8249 61.1465-35.1965 60.1426-33.5306C59.2295-32.0151 58.293-30.5179 57.1275-29.1844C55.7144-27.5676 54.09-26.2531 51.903-25.8314C51.644-25.7814 51.3801-25.7565 51.0513-25.7107C51.205-26.0365 51.4711-26.0788 51.6792-26.1814C52.7937-26.7307 53.9132-27.2649 54.8856-28.0609C55.4699-28.5392 55.9378-29.1199 56.418-29.6981C55.7986-29.0997 55.1084-28.5966 54.3837-28.1401C53.6538-27.6804 52.8827-27.3302 51.9212-27.211C52.1197-27.5288 52.4078-27.6157 52.551-27.9072C51.8436-27.7022 51.1965-27.3982 50.3624-27.3007C50.7527-27.7715 51.3019-27.8318 51.6546-28.3149C50.9749-28.2729 50.4066-28.1647 49.8733-27.9072C49.8001-27.8718 49.7584-27.7332 49.7368-27.6349C49.5783-26.9114 49.5464-26.1767 49.6534-25.4474C49.7802-24.5833 50.3172-23.958 50.9586-23.4149C51.7731-22.7252 52.6929-22.1894 53.594-21.6262C54.1268-21.2933 54.669-20.9717 55.1783-20.6052C56.9928-19.2993 58.0431-17.5212 58.4223-15.3235C58.7128-13.6399 58.7573-11.9668 58.3375-10.2983C58.0946-9.3331 57.7195-8.4258 57.1748-7.5891C57.0557-7.4063 56.9244-7.3217 56.6983-7.3366C56.3739-7.3581 56.0471-7.3421 55.5711-7.3421C56.197-8.3278 56.7174-9.2226 56.8968-10.2634C56.7023-9.8437 56.5259-9.4169 56.2893-9.0174C55.904-8.3669 55.425-7.8003 54.8816-7.2792C54.5648-6.9754 54.1522-6.9202 53.7656-6.8606C53.0915-6.7567 52.4048-6.734 51.7096-6.6761C51.6404-6.9603 51.8276-7.0973 51.9429-7.2538C52.4989-8.0084 52.3874-9.0538 51.6535-9.6696C50.6332-10.5257 49.4481-10.9721 48.117-11.0233C47.8179-11.0348 47.5181-11.03 47.2187-11.0278C47.0798-11.0268 46.946-11.0053 46.8849-10.7828C47.342-10.5754 47.8587-10.5971 48.3339-10.4607C49.0388-10.2584 49.7422-10.0592 50.4073-9.7426C50.8677-9.5235 51.2351-9.207 51.4803-8.7581C51.8872-8.0128 51.5119-7.0657 50.6731-7.0007C49.2391-6.8897 48.1178-6.1412 46.9495-5.4478C46.6193-5.2518 46.4845-4.9755 46.4118-4.5023C47.2954-5.6234 48.6495-5.7137 49.6755-6.4014C49.8927-6.547 50.1486-6.6088 50.3883-6.3216C50.5891-6.0809 50.916-6.1278 51.1913-6.2135C51.7171-6.3772 52.0858-6.1606 52.409-5.776C52.8978-5.1942 53.2614-4.5498 53.4427-3.8066C53.5009-3.568 53.4635-3.3769 53.2818-3.1951C51.6612-1.5733 49.982-0.0245 48.0814 1.2763C47.5395 1.6471 46.9774 1.7769 46.3572 1.7878C41.3428 1.8761 36.5091 1.0165 31.8566-0.8896C28.634-2.21 25.6563-3.934 22.8978-6.0488C22.6725-6.2215 22.4771-6.4341 22.2478-6.6008C21.8636-6.8802 21.6652-7.2003 21.922-7.6674C21.9982-7.8058 21.9343-7.9262 21.8816-8.051C20.8678-10.4538 21.2162-12.6621 22.8418-14.7042C22.63-14.692 22.6064-14.4 22.3163-14.4331C22.5306-14.953 22.7573-15.4419 23.0164-15.9205C24.1341-17.9856 25.9512-19.2643 27.9398-20.3712C29.807-21.4105 31.83-22.1582 33.5876-23.4002C34.0276-23.7111 34.4653-24.0253 34.9048-24.337C35.0359-24.4299 35.1705-24.5654 35.3155-24.2822C35.7561-25.4496 35.9992-26.6348 36.2665-27.811C36.4428-28.5862 36.6472-29.3229 37.3784-29.7787C37.5787-29.9035 37.5791-30.1348 37.6099-30.3396C37.7325-31.1568 37.5726-31.9117 37.1241-32.6107C36.8737-33.0009 36.643-33.4043 36.4155-33.8085C35.9446-34.6455 35.5666-35.5209 35.3566-36.4651C35.2729-35.2811 35.5293-34.1457 35.8594-33.0014C35.6465-32.9783 35.6092-33.1217 35.5484-33.2287C34.5765-34.941 34.3028-36.797 34.4335-38.7312C34.5555-40.5365 34.8746-42.3099 35.3388-44.0596C34.5164-42.3961 34.106-40.6064 33.7437-38.7298C33.4041-39.4025 33.3598-40.793 34.3669-44.6657C33.7938-44.069 33.0672-41.2694 32.9026-39.7349C32.714-37.9774 32.8528-36.2542 33.3407-34.5391C32.8737-35.0197 32.6547-35.654 32.2812-36.224C32.0687-35.8828 32.1444-35.5041 31.9576-35.2143C31.7825-35.2465 31.817-35.3674 31.8391-35.4614C32.0902-36.531 31.9123-37.5901 31.7587-38.6479C31.5915-39.7997 31.6876-40.9491 31.8036-42.093C32.0567-44.5878 32.6608-47.0052 33.4878-49.3699C34.7445-52.963 36.5667-56.2125 39.2694-58.9306C39.6485-59.3118 39.9846-59.7351 40.409-60.072C38.7313-59.1461 35.2188-55.46 33.6873-52.2178C32.1775-49.0215 31.4533-45.6461 31.4376-42.0271C31.2142-42.227 31.2496-42.3979 31.2437-42.5485C31.1098-45.9652 31.5137-49.2944 32.853-52.4734C33.5571-54.1447 34.5542-55.6336 35.6925-57.0301C37.1273-58.7901 38.7472-60.352 40.632-61.6388C43.0257-63.2729 45.6426-64.3043 48.5204-64.6378C51.3014-64.9601 54.012-64.6779 56.607-63.5636C56.9934-63.3976 57.3529-63.1827 57.7008-62.9483C57.7593-62.9089 57.8071-62.8539 57.9177-62.7536C54.846-63.2502 51.9327-63.0045 49.1332-61.7662C46.2937-60.5103 44.0527-58.5377 42.2098-55.9969C42.0106-55.7956 41.8902-55.6079 41.7686-55.4181C41.2754-54.6484 40.8578-53.8382 40.4341-53.0294C38.8164-49.9413 37.8279-46.6456 37.1579-43.2416C37.1062-42.9791 37.1873-42.7719 37.373-42.5311C37.4545-42.7334 37.5234-42.8803 37.5719-43.0336C37.603-43.1318 37.6043-43.2394 37.6182-43.3429C37.8817-45.3055 38.3576-47.2193 39.0311-49.0771C39.8978-51.4683 40.8424-53.8286 42.2278-55.982ZM52.3785-37.6897C51.6117-38.1247 50.9072-38.6442 50.2481-39.2049C50.313-39.3689 50.4258-39.3629 50.5257-39.3892C52.0179-39.7809 53.4599-39.5776 54.8751-39.0308C55.6293-38.7395 56.3559-38.3883 57.0835-38.0384C57.3557-37.9075 57.6364-37.833 57.8091-38.1907C58.2121-39.0259 58.6084-39.8644 59.0119-40.6993C59.1041-40.8899 59.0827-41.0373 58.9083-41.1683C57.4863-42.2366 55.9785-43.1405 54.2278-43.5597C53.7629-43.671 53.2834-43.7209 52.7933-43.8019C52.8946-44.0038 53.0584-44.0205 53.1958-44.0324C53.7476-44.08 54.2971-44.1024 54.8424-43.9389C55.8152-43.647 56.691-43.1688 57.5105-42.5827C58.075-42.179 58.6234-41.7527 59.2308-41.2977C59.529-42.5153 60.1218-43.5758 60.4005-44.7353C60.7055-46.0042 60.5554-47.2131 59.7078-48.2994C59.102-49.0757 58.4935-49.8626 58.0616-50.7571C57.8725-51.1488 57.6619-51.123 57.3688-50.8976C55.9392-49.7988 54.2818-49.3031 52.5268-49.0353C50.444-48.7174 48.3628-48.3804 46.3398-47.7675C46.1785-47.7186 45.976-47.7215 45.8933-47.5188C45.9894-47.239 46.3434-47.1119 46.3375-46.7377C46.0356-46.7156 45.8736-46.9435 45.6617-47.0563C45.418-47.186 45.2108-47.4118 44.8829-47.2946C43.8964-46.9419 42.9114-46.5847 42.0252-46.0131C41.7449-45.8323 41.4667-45.6295 41.3178-45.2988C41.6073-45.0951 41.9744-45.0414 42.1612-44.6859C41.7935-44.584 41.5392-44.9859 41.1344-44.8567C44.1004-43.7294 45.0327-42.3486 45.0334-41.4255C43.8396-41.6278 42.6247-41.7099 41.5052-42.19C40.9428-42.4312 40.4109-42.6195 39.7857-42.511C39.5887-42.4768 39.4527-42.4635 39.37-42.2712C38.967-41.3347 38.6013-40.3893 38.5589-39.3518C38.5367-38.8065 38.5623-38.2624 38.5543-37.6996C37.7886-38.6993 37.5549-39.9147 37.2499-41.1109C37.0665-41.0126 37.0573-40.9204 37.0327-40.8342C36.7619-39.8845 36.5621-38.9173 36.4338-37.9409C36.3126-37.0182 36.2955-36.0972 36.7674-35.2292C38.0212-32.9227 39.6494-30.8999 41.4381-28.9964C41.8986-28.5063 42.4852-28.3225 43.1446-28.3487C43.5481-28.3648 43.9508-28.3987 44.3543-28.4108C46.3303-28.4705 48.295-28.6399 50.23-29.059C51.931-29.4275 53.5211-30.0226 54.8281-31.2483C55.4076-31.7918 55.7498-32.5276 56.4996-32.9545C57.1354-33.3165 58.4066-35.5033 58.6914-36.3022C57.4692-34.5617 56.1718-33.0716 54.3413-32.1339C54.5191-32.5154 54.7522-32.8499 55.0031-33.1705C55.6969-34.0568 56.3429-34.9724 56.7726-36.0211C56.964-36.4881 56.7186-36.788 56.2021-36.736C56.0967-36.5961 56.2863-36.4143 56.1349-36.2713C55.8748-36.3242 55.7247-36.6306 55.433-36.5943C55.3192-36.5018 55.384-36.3092 55.191-36.2545C54.9833-36.5271 54.6285-36.5685 54.3593-36.7114C53.7277-37.0467 53.0533-37.2961 52.3785-37.6897ZM41.4-3.4133C41.7592-3.9385 41.4303-4.4708 41.4329-5.0114C40.597-4.0638 39.985-2.9435 38.9311-2.0838C38.9123-2.266 38.884-2.3326 38.9038-2.3786C39.2669-3.2222 39.7648-3.9986 40.116-4.8518C40.2454-5.1659 40.5731-5.398 40.8092-5.6685C41.6652-6.6496 42.5365-7.6197 43.141-8.7881C43.2174-8.9357 43.3278-9.0832 43.282-9.3328C42.3655-8.5312 41.6339-7.62 40.7886-6.8161C40.8605-7.2035 41.1518-7.4918 41.2086-7.9443C40.7608-7.6439 40.5556-7.207 40.2144-6.9024C39.8816-6.6053 39.6173-6.2173 39.059-6.0155C39.5504-6.9892 40.2249-7.7195 40.7479-8.6331C40.3372-8.6293 40.1482-8.4689 39.9649-8.3251C39.0296-7.5918 38.2981-6.6932 37.8485-5.5867C37.4754-4.6681 37.0675-3.773 36.4253-3.0038C36.3536-2.9179 36.2538-2.8301 36.3192-2.6488C37.1312-2.9099 37.7682-3.4847 38.6133-3.9671C38.4428-2.9947 38.256-2.1402 38.4437-1.2671C39.6485-1.6816 40.6501-2.3193 41.4-3.4133ZM37.3497-23.4083C37.6188-23.2649 37.7166-23.5224 37.8448-23.6452C39.0369-24.7872 40.3281-25.7969 41.7549-26.6305C42.0857-26.8238 42.415-27.0195 42.8553-27.2791C40.769-27.745 39.8648-29.4624 38.58-30.9178C38.149-28.3575 38.1301-25.8441 37.3497-23.4083ZM37.3635-6.2639C37.8414-6.777 38.1921-7.3756 38.6251-8.0292C38.0129-8.1214 37.4991-8.193 37.0121-7.9379C36.5492-7.6954 36.107-7.4137 35.6515-7.1568C35.4194-7.0259 35.1994-6.8445 34.7754-6.8987C36.1454-8.1969 37.5265-9.3443 38.6589-10.7435C37.3265-10.2162 36.2762-9.2643 35.1328-8.4484C35.6361-9.2842 36.4625-9.7901 37.1458-10.4391C35.6481-9.7759 34.5049-8.7072 33.5722-7.3885C33.0651-6.6716 32.6725-5.909 32.5099-5.038C32.4782-4.868 32.457-4.6967 32.6036-4.5831C32.7611-4.4609 32.9189-4.5652 33.0595-4.6485C33.2137-4.7397 33.3652-4.8375 33.5078-4.9457C34.1823-5.4573 34.9055-5.7747 35.7878-5.7155C36.3408-5.6784 36.8968-5.7819 37.3635-6.2639ZM42.8873-18.6771C42.979-18.4418 43.1132-18.238 43.3928-18.2394C43.5997-18.2404 43.785-18.3651 43.8515-18.552C43.9893-18.9397 44.2003-19.3558 43.9861-19.7562C43.7603-20.1783 43.3075-20.1212 42.903-20.112C42.8287-20.1103 42.7537-20.1004 42.6807-20.0862C42.2711-20.0065 41.8671-19.9133 41.4501-20.0797C41.2619-20.1548 41.0283-20.114 40.9069-19.9603C40.4886-19.4307 39.8278-19.1557 39.4704-18.5691C39.3597-18.3874 39.2156-18.3121 38.994-18.3051C38.1334-18.2778 37.4488-17.4029 37.5925-16.5148C37.7279-16.5872 37.8519-16.6996 37.9887-16.7185C38.5076-16.7904 38.7849-17.0092 38.6156-17.5769C38.5958-17.6432 38.6393-17.723 38.7284-17.7454C38.8517-17.7398 38.9226-17.6463 38.9583-17.5565C39.1783-17.0033 39.7328-16.9914 40.1708-16.7919C40.2628-16.75 40.3667-16.7588 40.3997-16.8578C40.5748-17.383 41.1587-17.7357 41.0404-18.387C41.025-18.4718 40.9913-18.5993 41.1307-18.6581C41.266-18.5888 41.2856-18.4446 41.3438-18.3294C41.4787-18.0621 41.5883-17.7339 41.9537-17.7607C42.3411-17.7892 42.3898-18.154 42.5031-18.4436C42.5783-18.6355 42.5185-18.8853 42.7481-19.055C42.7972-18.9273 42.834-18.8317 42.8873-18.6771ZM44.3959-9.496C44.4115-9.5594 44.4756-9.6287 44.3584-9.6885C44.1453-9.4929 44.0532-9.2165 43.913-8.9754C43.3642-8.0309 42.8015-7.0909 42.5782-5.9996C42.5404-5.8147 42.4511-5.6266 42.6585-5.4218C43.1101-5.6207 43.5674-5.8348 44.0347-6.0243C44.5424-6.2303 44.6823-6.7694 45.0013-7.1346C45.2054-6.9949 45.0345-6.771 45.2002-6.6678C46.2401-6.7735 46.4282-7.0935 46.0874-8.1731C46.0353-8.1491 45.9421-8.0976 45.9371-8.1051C45.543-8.6938 45.822-9.4106 45.5667-10.0752C44.9512-9.4727 44.5489-8.7309 43.9891-8.1135C44.0177-8.5945 44.2273-9.009 44.3959-9.496ZM25.5965-16.6775C27.2882-17.1836 28.9799-17.6897 30.6739-18.1964C30.8172-17.8553 30.5769-17.3962 31.0763-17.2927C31.3366-17.2388 31.5946-17.2724 31.762-17.5114C32.068-17.9481 31.6883-18.2093 31.4497-18.5103C31.5253-18.563 31.5686-18.6036 31.6197-18.6271C33.2695-19.3882 34.8176-20.3141 36.2279-21.464C36.3652-21.576 36.5156-21.6397 36.6831-21.562C37.197-21.3235 37.7762-21.4555 38.3038-21.2565C38.622-21.1364 38.9333-21.253 39.0923-21.5919C39.2074-21.8372 39.1514-22.0693 38.9379-22.2347C38.6466-22.4603 38.3522-22.4115 38.0762-22.1928C37.9605-22.1011 37.865-21.9315 37.7091-21.96C37.0161-22.0862 36.2821-22.0996 35.7117-22.605C35.5008-22.7918 35.2731-22.9379 34.9852-22.8208C34.7125-22.7099 34.5398-22.4898 34.5798-22.19C34.6234-21.8632 34.8714-21.7378 35.1812-21.6839C35.4029-21.6453 35.6401-21.835 35.8531-21.6525C35.8034-21.4495 35.636-21.3868 35.5111-21.2881C33.6341-19.8048 31.5051-18.8078 29.2507-18.0546C28.01-17.64 26.7329-17.3251 25.5965-16.6775ZM37.1676-15.8035C37.0455-15.6582 36.7989-15.6036 36.7882-15.3853C36.7716-15.0468 36.5605-14.8469 36.3402-14.6427C36.0977-14.418 35.8863-14.1667 35.7071-13.8892C35.5618-13.6641 35.6218-12.5545 35.7913-12.3584C35.839-12.3032 35.9013-12.2548 35.9661-12.2213C36.3862-12.0044 37.4361-12.1736 37.8002-12.5143C37.6897-12.6177 37.5475-12.5832 37.419-12.6011C36.8433-12.6809 36.7422-12.9042 37.0613-13.3952C37.1694-13.5616 37.3115-13.689 37.4802-13.7925C37.7182-13.9384 37.9517-14.0918 38.1924-14.2453C38.0298-14.5702 37.572-14.5658 37.5146-14.9438C38.0321-15.1591 38.3246-15.1982 39.058-15.0623C39.4831-14.9834 39.4942-15.3228 39.6355-15.545C39.781-15.7739 39.6948-15.9192 39.4948-16.0653C38.8641-16.5262 38.0274-16.4516 37.1676-15.8035ZM35.3214-11.8081C35.6241-12.0485 35.3212-12.2023 35.2241-12.3641C35.1176-12.5415 34.9527-12.4386 34.8318-12.3582C34.5435-12.1665 34.2517-11.9564 34.1756-11.5965C34.1098-11.2856 33.9486-11.0573 33.7319-10.8407C33.2341-10.3429 33.0428-9.7209 32.9969-9.0246C33.625-9.1065 37.5672-11.2777 37.7345-11.6394C37.1105-11.6903 36.5098-11.6892 35.913-11.4999C35.3342-11.3162 34.8209-10.971 34.2365-10.7959C34.4561-11.2773 34.8698-11.5169 35.3214-11.8081ZM46.0644-21.0094C46.2707-21.3336 46.6416-21.5439 46.7751-21.9141C46.637-22.0228 46.5497-21.9931 46.4648-21.9649C45.9072-21.7795 45.613-21.2897 45.2639-20.8654C44.7649-21.4061 44.532-21.4561 44.0481-21.1649C43.9138-21.0841 43.8484-20.9813 43.9021-20.8317C43.9467-20.7072 43.987-20.5558 44.1463-20.5399C44.2989-20.5246 44.3308-20.6599 44.37-20.775C44.3973-20.8551 44.4065-20.9562 44.5496-20.9584C44.8972-20.5112 44.8506-19.9497 44.9394-19.4292C44.9834-19.1718 45.0463-19.0606 45.3411-19.1254C46.7355-19.4319 47.4028-20.5909 48.3084-21.5304C47.9436-21.7932 47.6849-21.7777 47.4249-21.4917C46.914-20.9297 46.3926-20.3756 45.5994-20.0588C45.6359-20.4483 45.8318-20.7033 46.0644-21.0094ZM41.785-10.0479C41.9818-9.8412 42.1687-9.9451 42.3397-10.0793C42.4941-10.2004 42.6442-10.3168 42.8457-10.3486C43.6618-10.4773 44.2785-11.0441 45.0168-11.3459C45.1321-11.3931 45.2235-11.5162 45.3073-11.6194C45.4513-11.7968 45.5796-11.9817 45.4042-12.2201C45.2369-12.4475 45.0443-12.3061 44.8798-12.248C44.3543-12.0623 43.8118-11.9566 43.2613-11.9344C42.6781-11.911 42.1667-11.9961 41.8089-11.2662C41.5829-10.8052 41.5339-10.5046 41.785-10.0479ZM42.3865-17.2436C41.8988-16.8366 41.192-16.7371 40.8382-16.1382C40.8047-16.0814 40.7209-16.0432 40.6525-16.0202C40.3511-15.9188 40.2131-15.6744 40.1072-15.4056C39.938-14.9759 40.0103-14.7211 40.4201-14.5761C40.7638-14.4545 41.0042-14.666 41.1343-14.9856C41.2124-15.1774 41.3232-15.3486 41.5363-15.3628C41.8046-15.3807 41.9251-15.5361 42.0273-15.7501C42.1179-15.9397 42.233-16.1307 42.4138-16.2364C42.8565-16.4952 42.8605-17.0002 43.1574-17.3586C42.8575-17.4622 42.657-17.3418 42.3865-17.2436ZM47.7474-19.0347C47.503-18.9934 47.2561-18.9298 47.2143-18.6426C47.1717-18.3491 47.151-18.0396 47.5104-17.8509C48.128-18.5555 49.045-18.8401 49.6646-19.5281C49.8802-19.3009 49.7981-19.1307 49.7957-18.9753C49.7914-18.7046 49.904-18.6258 50.1571-18.7049C50.5103-18.8154 50.9749-19.3866 50.9919-19.7446C50.9996-19.9062 50.9434-20.0316 50.792-20.1117C50.3419-20.3498 49.8021-20.2206 49.4949-19.81C49.4013-19.685 49.3237-19.4241 49.1666-19.4898C48.5692-19.7396 48.2129-19.3504 47.7474-19.0347ZM45.4461-14.6449C44.878-14.5367 44.7754-14.4296 44.7919-13.8921C44.7992-13.655 44.6698-13.389 44.8021-13.1896C44.9862-12.9121 45.2592-13.2187 45.5002-13.1625C45.9203-13.0647 46.1332-13.2728 46.1984-13.6889C46.2623-14.0964 46.4863-14.3631 46.9271-14.4093C47.2391-14.442 47.3355-14.6141 47.2112-14.9071C47.1589-15.0303 47.1124-15.1563 47.0696-15.2831C47.0051-15.4744 46.9372-15.6698 46.6777-15.611C46.4329-15.5555 46.1227-15.5088 46.1279-15.1891C46.1352-14.7359 45.9167-14.6125 45.4461-14.6449ZM39.307-14.4097C39.1854-14.4052 39.0378-14.4012 38.9784-14.2981C38.71-13.8325 38.2325-13.6234 37.8298-13.3219C37.74-13.2547 37.6198-13.1932 37.6578-13.0364C37.7859-12.93 37.9422-12.9733 38.0851-12.9698C38.3986-12.9622 38.7131-12.9847 39.0261-12.9701C39.332-12.9558 39.6015-12.9021 39.4705-12.4646C39.3968-12.2183 39.4878-11.9806 39.6614-11.7792C39.8533-11.8943 39.8507-12.0717 39.8924-12.2248C39.9716-12.5154 40.08-12.7931 40.2511-13.0416C40.5841-13.5254 40.5755-13.6385 40.1099-13.9941C39.8856-14.1653 39.6537-14.3342 39.307-14.4097ZM61.4833-49.3748C61.5421-48.1672 60.9825-47.0143 61.1385-45.7745C62.0293-46.4393 62.5279-52.295 61.9127-53.3193C62.0158-52.5252 61.9221-51.7807 61.9056-51.0358C61.8999-50.7772 61.9909-50.4246 61.5703-50.3306C61.5284-50.3213 61.501-50.1739 61.4958-50.0888C61.4831-49.88 61.4874-49.6701 61.4833-49.3748ZM43.7857-13.6894C44.2444-13.535 44.2444-13.535 44.4087-13.7235C44.344-13.8335 44.2317-13.8203 44.1309-13.8243C43.6093-13.8449 43.0868-13.8429 42.5684-13.9242C42.3577-13.9573 42.1511-13.9035 41.9592-13.8119C40.8564-13.2855 40.2626-12.3949 40.1018-11.1991C40.0905-11.1149 40.0803-11.0157 40.2154-10.9463C40.529-11.0089 40.8343-11.1673 41.124-11.3424C41.3595-11.4847 41.4713-11.6624 41.16-11.8884C40.8289-12.1289 40.8418-12.3599 41.1789-12.5854C41.3631-12.7086 41.5672-12.8147 41.777-12.8838C42.0819-12.9843 42.3239-13.1294 42.541-13.3854C42.8375-13.7348 43.2511-13.8668 43.7857-13.6894ZM49.4231-17.7319C49.0321-17.6528 48.7101-17.3204 48.2691-17.3635C48.2296-17.6989 48.489-17.8948 48.5049-18.2132C47.7826-17.9617 47.6107-17.3134 47.1898-16.6825C47.4828-16.7994 47.6128-16.8306 47.8073-16.7066C48.1129-16.5116 48.4574-16.3975 48.8802-16.6375C49.2693-16.8584 49.5597-17.1652 49.8977-17.4288C50.6705-18.0315 51.5203-18.4869 52.4707-18.7531C51.9335-18.7111 51.4094-18.6448 50.9176-18.4017C50.4492-18.1701 49.9643-17.972 49.4231-17.7319ZM46.2133-18.9378C45.6596-18.9275 45.1783-18.7552 44.8745-18.2659C44.5943-17.8147 44.7576-17.4729 45.2734-17.3742C45.4961-17.5993 45.4051-17.9876 45.685-18.1951C46.0409-18.0569 46.0427-17.6196 46.3356-17.4189C46.4617-17.5921 46.5433-17.7622 46.675-17.8726C46.9228-18.0803 46.9419-18.3378 46.8671-18.6044C46.7892-18.8819 46.5292-18.9083 46.2133-18.9378ZM40.6777-10.1784C40.6255-10.4191 40.4616-10.3977 40.3009-10.321C39.5968-9.9847 38.9908-9.5089 38.4377-8.9655C38.3521-8.8814 38.2619-8.75 38.4099-8.5838C39.1251-8.7497 39.7749-9.1068 40.448-9.4104C40.8121-9.5746 40.9354-9.7686 40.6777-10.1784ZM43.7842-55.2129C43.7307-55.1155 43.5771-55.0771 43.5996-54.8983C45.22-56.4135 46.9152-57.7933 48.6446-59.1325C46.7042-58.2552 45.1209-56.9346 43.7842-55.2129ZM50.7813-51.0643C50.0067-50.5513 49.2321-50.0382 48.4575-49.5252C50.2752-50.2029 51.7701-51.355 53.1236-52.7146C52.3604-52.177 51.5973-51.6394 50.7813-51.0643ZM46.9687-11.7522C47.2372-12.2517 47.4622-12.764 47.5147-13.412C46.626-12.6908 46.1472-11.9584 46.2167-11.4666C46.4688-11.4982 46.7073-11.5653 46.9687-11.7522ZM48.4597-52.3068C48.1111-52.0773 47.7615-51.8495 47.4143-51.618C47.055-51.3783 46.6933-51.1417 46.3414-50.8916C46.0167-50.6609 45.7036-50.414 45.3854-50.1743C46.8149-50.9752 48.2237-51.7937 49.4763-52.8471C49.0992-52.7789 48.8199-52.5357 48.4597-52.3068ZM51.6172-57.2377C51.1083-56.816 50.6007-56.3931 50.1755-55.8813C51.4449-56.8273 52.7166-57.7693 53.7833-58.9537C53.0343-58.4495 52.3216-57.9002 51.6172-57.2377ZM45.7747-16.305C46.0064-15.9345 46.35-15.9093 46.5699-16.2471C46.6756-16.4095 46.7882-16.568 46.884-16.736C47.0219-16.9777 46.9844-17.1965 46.7768-17.3834C46.7321-17.2457 46.7372-17.113 46.7308-16.9809C46.7229-16.8194 46.7431-16.6246 46.5586-16.5552C46.3721-16.4852 46.2685-16.6564 46.1493-16.7646C46.0048-16.8957 45.939-17.1172 45.7141-17.1852C45.5989-16.882 45.6831-16.6263 45.7747-16.305ZM42.2289-12.4339C42.201-12.4045 42.1731-12.3751 42.1452-12.3457C42.1584-12.3398 42.1715-12.3289 42.1848-12.3287C42.5116-12.3232 42.8393-12.2992 43.1624-12.3636C43.1809-13.0448 43.7774-12.4685 43.977-12.7492C43.4346-13.4334 43.2101-13.4398 42.6926-12.7693C42.5793-12.6225 42.4653-12.4945 42.2289-12.4339ZM48.2106-15.2615C48.2458-15.4237 48.4066-15.5973 48.1796-15.7384C48.0105-15.8434 47.864-15.7532 47.7232-15.664C47.533-15.5434 47.4541-15.3786 47.5737-15.1709C47.817-14.7482 47.7485-14.3748 47.4279-14.0242C47.3693-13.9602 47.2622-13.8841 47.3888-13.7338C47.8824-14.1074 47.9332-14.7104 48.2106-15.2615ZM44.4689-18.1674C44.4513-18.2774 44.4892-18.4146 44.2913-18.4676C44.0078-18.1844 43.8006-17.8296 43.6023-17.4695C43.5499-17.3743 43.5381-17.2703 43.6357-17.1857C43.7333-17.1012 43.8169-17.1516 43.9195-17.192C44.3363-17.3562 44.5098-17.6575 44.4689-18.1674ZM38.308-42.3203C38.3279-42.3054 38.2695-42.2139 38.3585-42.2683C38.369-42.2748 38.3738-42.294 38.3772-42.3083C38.6231-43.3392 38.8232-44.3815 39.1411-45.3948C39.1509-45.426 39.1602-45.4831 39.0754-45.4839C38.616-44.5003 38.4866-43.4304 38.308-42.3203ZM41.505-14.1501C41.6941-14.3592 41.9905-14.3904 42.2336-14.5539C42.0353-14.8072 41.8167-14.7526 41.6198-14.6492C41.2576-14.4591 40.8793-14.2722 40.781-13.8088C40.9912-13.9527 41.1718-14.1289 41.505-14.1501ZM43.5181-48.4502C43.1206-47.9732 42.6383-47.5638 42.3474-47.0009C43.1797-47.8273 43.8942-48.7571 44.6889-49.6171C44.3132-49.2431 43.9375-48.8691 43.5181-48.4502ZM45.0846-16.2858C45.0745-16.3888 45.0754-16.4944 45.0517-16.5942C45.0133-16.7562 45.0711-16.994 44.8385-17.0317C44.6189-17.0674 44.4541-16.9396 44.3434-16.7124C44.6592-16.5328 44.6742-16.0746 45.1069-15.9803C45.1017-16.0805 45.0981-16.1521 45.0846-16.2858ZM43.4557-14.4766C44.0034-14.3492 44.1986-14.4518 44.4934-15.0452C43.9356-15.2567 43.7301-14.7839 43.4557-14.4766ZM59.7317-62.5617C59.9051-62.8206 60.0638-63.052 60.2226-63.2833C60.2064-63.2983 60.1902-63.3133 60.1739-63.3283C59.8846-63.0871 59.5952-62.8459 59.2508-62.5588C59.1673-62.921 59.0967-63.2278 59.0155-63.58C58.907-63.3615 59.0456-63.1429 58.8428-62.9708C58.5957-63.0731 58.4999-63.3624 58.244-63.5089C58.1667-63.3619 58.0561-63.3206 57.8842-63.4125C56.4162-64.1967 54.8459-64.6522 53.1972-64.8507C53.157-64.8555 53.1202-64.8883 53.0847-64.9066C53.0802-65.0273 53.1656-65.0689 53.2462-65.1045C54.4648-65.6424 55.7006-66.1292 57.0202-66.3659C57.2435-66.4059 57.4611-66.4086 57.6875-66.3703C58.0762-66.3047 58.448-66.3375 58.8188-66.5241C59.3939-66.8136 59.845-66.7103 60.1711-66.1641C60.4764-65.6528 60.8852-65.4774 61.4423-65.5295C61.5758-65.542 61.7115-65.5374 61.846-65.5333C62.4671-65.5146 62.8286-65.1533 62.7825-64.5305C62.747-64.0507 62.7152-63.5921 62.8746-63.117C62.9955-62.7564 62.7517-62.4555 62.4914-62.2166C62.1083-61.8649 61.6448-61.6561 61.1426-61.54C60.7528-61.4499 60.4467-61.6695 60.1528-61.8698C59.9405-62.0144 60.1521-62.1912 60.1736-62.3486C60.0601-62.5172 59.7321-62.1322 59.7317-62.5617ZM63.4201-62.2939C63.9923-62.0406 64.1125-61.5549 64.1867-61.0366C64.3042-60.216 64.3991-59.3951 64.2869-58.5318C63.3822-59.364 62.55-60.2499 61.5977-61.1037C62.1008-61.4858 62.5332-61.8463 62.8917-62.2849C63.0339-62.4589 63.2184-62.3716 63.4201-62.2939ZM32.4166-32.3225C32.1683-31.7537 31.7431-31.3807 31.235-30.9901C31.8244-30.8887 32.2484-31.2188 32.7286-31.2962C32.1138-30.5256 31.2858-30.2487 30.3403-30.2707C29.5213-30.2898 28.8737-30.6588 28.3416-31.2771C28.5011-31.4455 28.6595-31.3974 28.7972-31.3842C29.8699-31.2808 30.7619-31.6478 31.5111-32.4022C31.6059-32.4976 31.7044-32.5896 31.8043-32.6796C31.9381-32.8003 32.0716-32.9411 32.2748-32.8235C32.4606-32.7159 32.4789-32.5442 32.4166-32.3225ZM60.7202-32.7309C60.229-32.1051 59.632-31.6498 59.0458-31.1891C58.9303-31.3004 58.9604-31.3772 59.0021-31.4346C59.543-32.1791 59.8734-33.0726 60.6104-33.6802C60.8192-33.8524 60.9292-34.0961 60.9891-34.3732C61.1974-35.3377 61.9072-36.0088 62.3958-36.8882C62.6668-36.5424 62.7053-36.2515 62.6644-35.9307C62.5402-34.957 61.9212-34.2568 61.3509-33.529C61.1484-33.2705 60.9436-33.0139 60.7202-32.7309ZM29.1796-27.5336C30.9519-27.7632 32.2401-28.8275 33.5477-29.8852C33.3835-29.1338 32.9531-28.5762 32.4409-28.0886C32.0751-27.7404 31.6597-27.4411 31.2484-27.1449C30.8677-26.8708 30.4224-26.7963 29.966-26.8779C29.4545-26.9694 28.9586-27.1186 28.474-27.4276C28.7104-27.6084 28.9403-27.4825 29.1796-27.5336ZM53.2506-5.9105C53.0862-6.0545 52.9447-6.1771 52.6921-6.3959C53.74-6.4404 54.6495-6.8515 55.6224-6.3366C55.1592-5.6547 54.369-5.6144 53.7806-5.1697C53.6075-5.4153 53.4405-5.6522 53.2506-5.9105ZM54.5691-4.5613C54.3771-4.4049 54.2884-4.1693 54.0465-4.1266C53.5311-4.7357 54.2318-5.304 55.3964-5.8014C55.2778-5.2525 54.9175-4.9286 54.5691-4.5613ZM33.6847-36.5059C33.616-36.9833 33.408-37.4166 33.619-37.882C33.9678-36.8034 34.2335-35.7068 34.5455-34.6183C34.0877-35.1579 33.9048-35.8205 33.6847-36.5059ZM55.5983-6.8117C55.8073-6.8666 55.9908-6.9345 56.2027-6.8405C56.159-6.6196 56.0185-6.4924 55.8162-6.4973C55.677-6.5007 55.531-6.5905 55.5983-6.8117ZM44.5761-32.4426C43.7686-32.7496 43.0153-33.077 42.5076-33.8016C43.6078-33.0656 44.8433-32.6485 46.0722-32.19C45.5373-32.0292 45.0841-32.2969 44.5761-32.4426ZM51.8689-39.9798C51.6428-39.9948 51.4524-39.9034 51.2598-39.9919C51.822-40.4716 53.2485-40.3563 53.8897-39.7353C53.23-39.8229 52.5847-40.0598 51.8689-39.9798ZM43.8222-44.0883C44.3856-43.7715 44.9536-43.4995 45.1377-42.7704C44.8928-42.7974 44.8113-42.9464 44.7197-43.0676C44.4619-43.4088 44.0997-43.6216 43.7666-43.8716C43.6674-43.946 43.4789-44.0618 43.8222-44.0883ZM45.8336-36.0662C45.6947-35.9891 45.6342-36.0426 45.6736-36.1542C45.7393-36.3405 45.7433-36.597 46.0591-36.6045C46.1199-36.3606 45.9451-36.2401 45.8336-36.0662Z"/>
  </g>
  <g id="Regular-S" transform="matrix(1 0 0 1 1403.84 696)">
   <path class="monochrome-0 multicolor-0:tintColor hierarchical-0:primary SFSymbolsPreviewWireframe" d="M42.2278-55.982C43.2236-56.932 44.164-57.9394 45.2112-58.8365C47.3255-60.6475 49.6714-61.9906 52.4389-62.531C54.3107-62.8965 56.149-62.8223 57.987-62.3142C58.7074-62.115 59.1666-61.7066 59.3995-61.0173C59.5668-60.5221 59.7255-60.024 59.8925-59.5134C59.9611-60.1465 59.6662-60.7427 59.703-61.365C59.9312-61.4595 60.0577-61.2934 60.2022-61.21C61.4229-60.5047 62.0647-59.3459 62.6196-58.1172C63.2261-56.7744 63.6099-55.3632 63.9379-53.9335C63.7678-55.8799 63.3415-57.7545 62.3825-59.4985C63.7706-58.5552 64.6639-57.1912 65.6165-55.8598C65.4351-56.312 65.2538-56.7642 65.0724-57.2163C65.7268-56.6721 66.1871-56.0046 66.5944-55.2981C68.1217-52.649 68.5027-49.7403 68.5985-46.7468C68.7085-43.306 67.6739-40.235 65.7738-37.4185C65.1604-36.5093 64.4582-35.672 63.5481-35.0364C63.4357-34.9579 63.3468-34.8106 63.0935-34.8592C65.2576-38.0842 67.1755-41.3779 67.0626-45.4206C66.7345-44.7108 66.4928-43.963 66.0287-43.3034C66.4122-44.9978 66.2799-46.6779 66.0332-48.3572C66.0215-47.269 65.9854-46.1834 65.8947-45.0983C65.8393-44.4343 65.7086-43.7879 65.4273-43.191C64.6884-41.6235 64.1807-39.949 63.2496-38.471C62.2127-36.8249 61.1465-35.1965 60.1426-33.5306C59.2295-32.0151 58.293-30.5179 57.1275-29.1844C55.7144-27.5676 54.09-26.2531 51.903-25.8314C51.644-25.7814 51.3801-25.7565 51.0513-25.7107C51.205-26.0365 51.4711-26.0788 51.6792-26.1814C52.7937-26.7307 53.9132-27.2649 54.8856-28.0609C55.4699-28.5392 55.9378-29.1199 56.418-29.6981C55.7986-29.0997 55.1084-28.5966 54.3837-28.1401C53.6538-27.6804 52.8827-27.3302 51.9212-27.211C52.1197-27.5288 52.4078-27.6157 52.551-27.9072C51.8436-27.7022 51.1965-27.3982 50.3624-27.3007C50.7527-27.7715 51.3019-27.8318 51.6546-28.3149C50.9749-28.2729 50.4066-28.1647 49.8733-27.9072C49.8001-27.8718 49.7584-27.7332 49.7368-27.6349C49.5783-26.9114 49.5464-26.1767 49.6534-25.4474C49.7802-24.5833 50.3172-23.958 50.9586-23.4149C51.7731-22.7252 52.6929-22.1894 53.594-21.6262C54.1268-21.2933 54.669-20.9717 55.1783-20.6052C56.9928-19.2993 58.0431-17.5212 58.4223-15.3235C58.7128-13.6399 58.7573-11.9668 58.3375-10.2983C58.0946-9.3331 57.7195-8.4258 57.1748-7.5891C57.0557-7.4063 56.9244-7.3217 56.6983-7.3366C56.3739-7.3581 56.0471-7.3421 55.5711-7.3421C56.197-8.3278 56.7174-9.2226 56.8968-10.2634C56.7023-9.8437 56.5259-9.4169 56.2893-9.0174C55.904-8.3669 55.425-7.8003 54.8816-7.2792C54.5648-6.9754 54.1522-6.9202 53.7656-6.8606C53.0915-6.7567 52.4048-6.734 51.7096-6.6761C51.6404-6.9603 51.8276-7.0973 51.9429-7.2538C52.4989-8.0084 52.3874-9.0538 51.6535-9.6696C50.6332-10.5257 49.4481-10.9721 48.117-11.0233C47.8179-11.0348 47.5181-11.03 47.2187-11.0278C47.0798-11.0268 46.946-11.0053 46.8849-10.7828C47.342-10.5754 47.8587-10.5971 48.3339-10.4607C49.0388-10.2584 49.7422-10.0592 50.4073-9.7426C50.8677-9.5235 51.2351-9.207 51.4803-8.7581C51.8872-8.0128 51.5119-7.0657 50.6731-7.0007C49.2391-6.8897 48.1178-6.1412 46.9495-5.4478C46.6193-5.2518 46.4845-4.9755 46.4118-4.5023C47.2954-5.6234 48.6495-5.7137 49.6755-6.4014C49.8927-6.547 50.1486-6.6088 50.3883-6.3216C50.5891-6.0809 50.916-6.1278 51.1913-6.2135C51.7171-6.3772 52.0858-6.1606 52.409-5.776C52.8978-5.1942 53.2614-4.5498 53.4427-3.8066C53.5009-3.568 53.4635-3.3769 53.2818-3.1951C51.6612-1.5733 49.982-0.0245 48.0814 1.2763C47.5395 1.6471 46.9774 1.7769 46.3572 1.7878C41.3428 1.8761 36.5091 1.0165 31.8566-0.8896C28.634-2.21 25.6563-3.934 22.8978-6.0488C22.6725-6.2215 22.4771-6.4341 22.2478-6.6008C21.8636-6.8802 21.6652-7.2003 21.922-7.6674C21.9982-7.8058 21.9343-7.9262 21.8816-8.051C20.8678-10.4538 21.2162-12.6621 22.8418-14.7042C22.63-14.692 22.6064-14.4 22.3163-14.4331C22.5306-14.953 22.7573-15.4419 23.0164-15.9205C24.1341-17.9856 25.9512-19.2643 27.9398-20.3712C29.807-21.4105 31.83-22.1582 33.5876-23.4002C34.0276-23.7111 34.4653-24.0253 34.9048-24.337C35.0359-24.4299 35.1705-24.5654 35.3155-24.2822C35.7561-25.4496 35.9992-26.6348 36.2665-27.811C36.4428-28.5862 36.6472-29.3229 37.3784-29.7787C37.5787-29.9035 37.5791-30.1348 37.6099-30.3396C37.7325-31.1568 37.5726-31.9117 37.1241-32.6107C36.8737-33.0009 36.643-33.4043 36.4155-33.8085C35.9446-34.6455 35.5666-35.5209 35.3566-36.4651C35.2729-35.2811 35.5293-34.1457 35.8594-33.0014C35.6465-32.9783 35.6092-33.1217 35.5484-33.2287C34.5765-34.941 34.3028-36.797 34.4335-38.7312C34.5555-40.5365 34.8746-42.3099 35.3388-44.0596C34.5164-42.3961 34.106-40.6064 33.7437-38.7298C33.4041-39.4025 33.3598-40.793 34.3669-44.6657C33.7938-44.069 33.0672-41.2694 32.9026-39.7349C32.714-37.9774 32.8528-36.2542 33.3407-34.5391C32.8737-35.0197 32.6547-35.654 32.2812-36.224C32.0687-35.8828 32.1444-35.5041 31.9576-35.2143C31.7825-35.2465 31.817-35.3674 31.8391-35.4614C32.0902-36.531 31.9123-37.5901 31.7587-38.6479C31.5915-39.7997 31.6876-40.9491 31.8036-42.093C32.0567-44.5878 32.6608-47.0052 33.4878-49.3699C34.7445-52.963 36.5667-56.2125 39.2694-58.9306C39.6485-59.3118 39.9846-59.7351 40.409-60.072C38.7313-59.1461 35.2188-55.46 33.6873-52.2178C32.1775-49.0215 31.4533-45.6461 31.4376-42.0271C31.2142-42.227 31.2496-42.3979 31.2437-42.5485C31.1098-45.9652 31.5137-49.2944 32.853-52.4734C33.5571-54.1447 34.5542-55.6336 35.6925-57.0301C37.1273-58.7901 38.7472-60.352 40.632-61.6388C43.0257-63.2729 45.6426-64.3043 48.5204-64.6378C51.3014-64.9601 54.012-64.6779 56.607-63.5636C56.9934-63.3976 57.3529-63.1827 57.7008-62.9483C57.7593-62.9089 57.8071-62.8539 57.9177-62.7536C54.846-63.2502 51.9327-63.0045 49.1332-61.7662C46.2937-60.5103 44.0527-58.5377 42.2098-55.9969C42.0106-55.7956 41.8902-55.6079 41.7686-55.4181C41.2754-54.6484 40.8578-53.8382 40.4341-53.0294C38.8164-49.9413 37.8279-46.6456 37.1579-43.2416C37.1062-42.9791 37.1873-42.7719 37.373-42.5311C37.4545-42.7334 37.5234-42.8803 37.5719-43.0336C37.603-43.1318 37.6043-43.2394 37.6182-43.3429C37.8817-45.3055 38.3576-47.2193 39.0311-49.0771C39.8978-51.4683 40.8424-53.8286 42.2278-55.982ZM52.3785-37.6897C51.6117-38.1247 50.9072-38.6442 50.2481-39.2049C50.313-39.3689 50.4258-39.3629 50.5257-39.3892C52.0179-39.7809 53.4599-39.5776 54.8751-39.0308C55.6293-38.7395 56.3559-38.3883 57.0835-38.0384C57.3557-37.9075 57.6364-37.833 57.8091-38.1907C58.2121-39.0259 58.6084-39.8644 59.0119-40.6993C59.1041-40.8899 59.0827-41.0373 58.9083-41.1683C57.4863-42.2366 55.9785-43.1405 54.2278-43.5597C53.7629-43.671 53.2834-43.7209 52.7933-43.8019C52.8946-44.0038 53.0584-44.0205 53.1958-44.0324C53.7476-44.08 54.2971-44.1024 54.8424-43.9389C55.8152-43.647 56.691-43.1688 57.5105-42.5827C58.075-42.179 58.6234-41.7527 59.2308-41.2977C59.529-42.5153 60.1218-43.5758 60.4005-44.7353C60.7055-46.0042 60.5554-47.2131 59.7078-48.2994C59.102-49.0757 58.4935-49.8626 58.0616-50.7571C57.8725-51.1488 57.6619-51.123 57.3688-50.8976C55.9392-49.7988 54.2818-49.3031 52.5268-49.0353C50.444-48.7174 48.3628-48.3804 46.3398-47.7675C46.1785-47.7186 45.976-47.7215 45.8933-47.5188C45.9894-47.239 46.3434-47.1119 46.3375-46.7377C46.0356-46.7156 45.8736-46.9435 45.6617-47.0563C45.418-47.186 45.2108-47.4118 44.8829-47.2946C43.8964-46.9419 42.9114-46.5847 42.0252-46.0131C41.7449-45.8323 41.4667-45.6295 41.3178-45.2988C41.6073-45.0951 41.9744-45.0414 42.1612-44.6859C41.7935-44.584 41.5392-44.9859 41.1344-44.8567C44.1004-43.7294 45.0327-42.3486 45.0334-41.4255C43.8396-41.6278 42.6247-41.7099 41.5052-42.19C40.9428-42.4312 40.4109-42.6195 39.7857-42.511C39.5887-42.4768 39.4527-42.4635 39.37-42.2712C38.967-41.3347 38.6013-40.3893 38.5589-39.3518C38.5367-38.8065 38.5623-38.2624 38.5543-37.6996C37.7886-38.6993 37.5549-39.9147 37.2499-41.1109C37.0665-41.0126 37.0573-40.9204 37.0327-40.8342C36.7619-39.8845 36.5621-38.9173 36.4338-37.9409C36.3126-37.0182 36.2955-36.0972 36.7674-35.2292C38.0212-32.9227 39.6494-30.8999 41.4381-28.9964C41.8986-28.5063 42.4852-28.3225 43.1446-28.3487C43.5481-28.3648 43.9508-28.3987 44.3543-28.4108C46.3303-28.4705 48.295-28.6399 50.23-29.059C51.931-29.4275 53.5211-30.0226 54.8281-31.2483C55.4076-31.7918 55.7498-32.5276 56.4996-32.9545C57.1354-33.3165 58.4066-35.5033 58.6914-36.3022C57.4692-34.5617 56.1718-33.0716 54.3413-32.1339C54.5191-32.5154 54.7522-32.8499 55.0031-33.1705C55.6969-34.0568 56.3429-34.9724 56.7726-36.0211C56.964-36.4881 56.7186-36.788 56.2021-36.736C56.0967-36.5961 56.2863-36.4143 56.1349-36.2713C55.8748-36.3242 55.7247-36.6306 55.433-36.5943C55.3192-36.5018 55.384-36.3092 55.191-36.2545C54.9833-36.5271 54.6285-36.5685 54.3593-36.7114C53.7277-37.0467 53.0533-37.2961 52.3785-37.6897ZM41.4-3.4133C41.7592-3.9385 41.4303-4.4708 41.4329-5.0114C40.597-4.0638 39.985-2.9435 38.9311-2.0838C38.9123-2.266 38.884-2.3326 38.9038-2.3786C39.2669-3.2222 39.7648-3.9986 40.116-4.8518C40.2454-5.1659 40.5731-5.398 40.8092-5.6685C41.6652-6.6496 42.5365-7.6197 43.141-8.7881C43.2174-8.9357 43.3278-9.0832 43.282-9.3328C42.3655-8.5312 41.6339-7.62 40.7886-6.8161C40.8605-7.2035 41.1518-7.4918 41.2086-7.9443C40.7608-7.6439 40.5556-7.207 40.2144-6.9024C39.8816-6.6053 39.6173-6.2173 39.059-6.0155C39.5504-6.9892 40.2249-7.7195 40.7479-8.6331C40.3372-8.6293 40.1482-8.4689 39.9649-8.3251C39.0296-7.5918 38.2981-6.6932 37.8485-5.5867C37.4754-4.6681 37.0675-3.773 36.4253-3.0038C36.3536-2.9179 36.2538-2.8301 36.3192-2.6488C37.1312-2.9099 37.7682-3.4847 38.6133-3.9671C38.4428-2.9947 38.256-2.1402 38.4437-1.2671C39.6485-1.6816 40.6501-2.3193 41.4-3.4133ZM37.3497-23.4083C37.6188-23.2649 37.7166-23.5224 37.8448-23.6452C39.0369-24.7872 40.3281-25.7969 41.7549-26.6305C42.0857-26.8238 42.415-27.0195 42.8553-27.2791C40.769-27.745 39.8648-29.4624 38.58-30.9178C38.149-28.3575 38.1301-25.8441 37.3497-23.4083ZM37.3635-6.2639C37.8414-6.777 38.1921-7.3756 38.6251-8.0292C38.0129-8.1214 37.4991-8.193 37.0121-7.9379C36.5492-7.6954 36.107-7.4137 35.6515-7.1568C35.4194-7.0259 35.1994-6.8445 34.7754-6.8987C36.1454-8.1969 37.5265-9.3443 38.6589-10.7435C37.3265-10.2162 36.2762-9.2643 35.1328-8.4484C35.6361-9.2842 36.4625-9.7901 37.1458-10.4391C35.6481-9.7759 34.5049-8.7072 33.5722-7.3885C33.0651-6.6716 32.6725-5.909 32.5099-5.038C32.4782-4.868 32.457-4.6967 32.6036-4.5831C32.7611-4.4609 32.9189-4.5652 33.0595-4.6485C33.2137-4.7397 33.3652-4.8375 33.5078-4.9457C34.1823-5.4573 34.9055-5.7747 35.7878-5.7155C36.3408-5.6784 36.8968-5.7819 37.3635-6.2639ZM42.8873-18.6771C42.979-18.4418 43.1132-18.238 43.3928-18.2394C43.5997-18.2404 43.785-18.3651 43.8515-18.552C43.9893-18.9397 44.2003-19.3558 43.9861-19.7562C43.7603-20.1783 43.3075-20.1212 42.903-20.112C42.8287-20.1103 42.7537-20.1004 42.6807-20.0862C42.2711-20.0065 41.8671-19.9133 41.4501-20.0797C41.2619-20.1548 41.0283-20.114 40.9069-19.9603C40.4886-19.4307 39.8278-19.1557 39.4704-18.5691C39.3597-18.3874 39.2156-18.3121 38.994-18.3051C38.1334-18.2778 37.4488-17.4029 37.5925-16.5148C37.7279-16.5872 37.8519-16.6996 37.9887-16.7185C38.5076-16.7904 38.7849-17.0092 38.6156-17.5769C38.5958-17.6432 38.6393-17.723 38.7284-17.7454C38.8517-17.7398 38.9226-17.6463 38.9583-17.5565C39.1783-17.0033 39.7328-16.9914 40.1708-16.7919C40.2628-16.75 40.3667-16.7588 40.3997-16.8578C40.5748-17.383 41.1587-17.7357 41.0404-18.387C41.025-18.4718 40.9913-18.5993 41.1307-18.6581C41.266-18.5888 41.2856-18.4446 41.3438-18.3294C41.4787-18.0621 41.5883-17.7339 41.9537-17.7607C42.3411-17.7892 42.3898-18.154 42.5031-18.4436C42.5783-18.6355 42.5185-18.8853 42.7481-19.055C42.7972-18.9273 42.834-18.8317 42.8873-18.6771ZM44.3959-9.496C44.4115-9.5594 44.4756-9.6287 44.3584-9.6885C44.1453-9.4929 44.0532-9.2165 43.913-8.9754C43.3642-8.0309 42.8015-7.0909 42.5782-5.9996C42.5404-5.8147 42.4511-5.6266 42.6585-5.4218C43.1101-5.6207 43.5674-5.8348 44.0347-6.0243C44.5424-6.2303 44.6823-6.7694 45.0013-7.1346C45.2054-6.9949 45.0345-6.771 45.2002-6.6678C46.2401-6.7735 46.4282-7.0935 46.0874-8.1731C46.0353-8.1491 45.9421-8.0976 45.9371-8.1051C45.543-8.6938 45.822-9.4106 45.5667-10.0752C44.9512-9.4727 44.5489-8.7309 43.9891-8.1135C44.0177-8.5945 44.2273-9.009 44.3959-9.496ZM25.5965-16.6775C27.2882-17.1836 28.9799-17.6897 30.6739-18.1964C30.8172-17.8553 30.5769-17.3962 31.0763-17.2927C31.3366-17.2388 31.5946-17.2724 31.762-17.5114C32.068-17.9481 31.6883-18.2093 31.4497-18.5103C31.5253-18.563 31.5686-18.6036 31.6197-18.6271C33.2695-19.3882 34.8176-20.3141 36.2279-21.464C36.3652-21.576 36.5156-21.6397 36.6831-21.562C37.197-21.3235 37.7762-21.4555 38.3038-21.2565C38.622-21.1364 38.9333-21.253 39.0923-21.5919C39.2074-21.8372 39.1514-22.0693 38.9379-22.2347C38.6466-22.4603 38.3522-22.4115 38.0762-22.1928C37.9605-22.1011 37.865-21.9315 37.7091-21.96C37.0161-22.0862 36.2821-22.0996 35.7117-22.605C35.5008-22.7918 35.2731-22.9379 34.9852-22.8208C34.7125-22.7099 34.5398-22.4898 34.5798-22.19C34.6234-21.8632 34.8714-21.7378 35.1812-21.6839C35.4029-21.6453 35.6401-21.835 35.8531-21.6525C35.8034-21.4495 35.636-21.3868 35.5111-21.2881C33.6341-19.8048 31.5051-18.8078 29.2507-18.0546C28.01-17.64 26.7329-17.3251 25.5965-16.6775ZM37.1676-15.8035C37.0455-15.6582 36.7989-15.6036 36.7882-15.3853C36.7716-15.0468 36.5605-14.8469 36.3402-14.6427C36.0977-14.418 35.8863-14.1667 35.7071-13.8892C35.5618-13.6641 35.6218-12.5545 35.7913-12.3584C35.839-12.3032 35.9013-12.2548 35.9661-12.2213C36.3862-12.0044 37.4361-12.1736 37.8002-12.5143C37.6897-12.6177 37.5475-12.5832 37.419-12.6011C36.8433-12.6809 36.7422-12.9042 37.0613-13.3952C37.1694-13.5616 37.3115-13.689 37.4802-13.7925C37.7182-13.9384 37.9517-14.0918 38.1924-14.2453C38.0298-14.5702 37.572-14.5658 37.5146-14.9438C38.0321-15.1591 38.3246-15.1982 39.058-15.0623C39.4831-14.9834 39.4942-15.3228 39.6355-15.545C39.781-15.7739 39.6948-15.9192 39.4948-16.0653C38.8641-16.5262 38.0274-16.4516 37.1676-15.8035ZM35.3214-11.8081C35.6241-12.0485 35.3212-12.2023 35.2241-12.3641C35.1176-12.5415 34.9527-12.4386 34.8318-12.3582C34.5435-12.1665 34.2517-11.9564 34.1756-11.5965C34.1098-11.2856 33.9486-11.0573 33.7319-10.8407C33.2341-10.3429 33.0428-9.7209 32.9969-9.0246C33.625-9.1065 37.5672-11.2777 37.7345-11.6394C37.1105-11.6903 36.5098-11.6892 35.913-11.4999C35.3342-11.3162 34.8209-10.971 34.2365-10.7959C34.4561-11.2773 34.8698-11.5169 35.3214-11.8081ZM46.0644-21.0094C46.2707-21.3336 46.6416-21.5439 46.7751-21.9141C46.637-22.0228 46.5497-21.9931 46.4648-21.9649C45.9072-21.7795 45.613-21.2897 45.2639-20.8654C44.7649-21.4061 44.532-21.4561 44.0481-21.1649C43.9138-21.0841 43.8484-20.9813 43.9021-20.8317C43.9467-20.7072 43.987-20.5558 44.1463-20.5399C44.2989-20.5246 44.3308-20.6599 44.37-20.775C44.3973-20.8551 44.4065-20.9562 44.5496-20.9584C44.8972-20.5112 44.8506-19.9497 44.9394-19.4292C44.9834-19.1718 45.0463-19.0606 45.3411-19.1254C46.7355-19.4319 47.4028-20.5909 48.3084-21.5304C47.9436-21.7932 47.6849-21.7777 47.4249-21.4917C46.914-20.9297 46.3926-20.3756 45.5994-20.0588C45.6359-20.4483 45.8318-20.7033 46.0644-21.0094ZM41.785-10.0479C41.9818-9.8412 42.1687-9.9451 42.3397-10.0793C42.4941-10.2004 42.6442-10.3168 42.8457-10.3486C43.6618-10.4773 44.2785-11.0441 45.0168-11.3459C45.1321-11.3931 45.2235-11.5162 45.3073-11.6194C45.4513-11.7968 45.5796-11.9817 45.4042-12.2201C45.2369-12.4475 45.0443-12.3061 44.8798-12.248C44.3543-12.0623 43.8118-11.9566 43.2613-11.9344C42.6781-11.911 42.1667-11.9961 41.8089-11.2662C41.5829-10.8052 41.5339-10.5046 41.785-10.0479ZM42.3865-17.2436C41.8988-16.8366 41.192-16.7371 40.8382-16.1382C40.8047-16.0814 40.7209-16.0432 40.6525-16.0202C40.3511-15.9188 40.2131-15.6744 40.1072-15.4056C39.938-14.9759 40.0103-14.7211 40.4201-14.5761C40.7638-14.4545 41.0042-14.666 41.1343-14.9856C41.2124-15.1774 41.3232-15.3486 41.5363-15.3628C41.8046-15.3807 41.9251-15.5361 42.0273-15.7501C42.1179-15.9397 42.233-16.1307 42.4138-16.2364C42.8565-16.4952 42.8605-17.0002 43.1574-17.3586C42.8575-17.4622 42.657-17.3418 42.3865-17.2436ZM47.7474-19.0347C47.503-18.9934 47.2561-18.9298 47.2143-18.6426C47.1717-18.3491 47.151-18.0396 47.5104-17.8509C48.128-18.5555 49.045-18.8401 49.6646-19.5281C49.8802-19.3009 49.7981-19.1307 49.7957-18.9753C49.7914-18.7046 49.904-18.6258 50.1571-18.7049C50.5103-18.8154 50.9749-19.3866 50.9919-19.7446C50.9996-19.9062 50.9434-20.0316 50.792-20.1117C50.3419-20.3498 49.8021-20.2206 49.4949-19.81C49.4013-19.685 49.3237-19.4241 49.1666-19.4898C48.5692-19.7396 48.2129-19.3504 47.7474-19.0347ZM45.4461-14.6449C44.878-14.5367 44.7754-14.4296 44.7919-13.8921C44.7992-13.655 44.6698-13.389 44.8021-13.1896C44.9862-12.9121 45.2592-13.2187 45.5002-13.1625C45.9203-13.0647 46.1332-13.2728 46.1984-13.6889C46.2623-14.0964 46.4863-14.3631 46.9271-14.4093C47.2391-14.442 47.3355-14.6141 47.2112-14.9071C47.1589-15.0303 47.1124-15.1563 47.0696-15.2831C47.0051-15.4744 46.9372-15.6698 46.6777-15.611C46.4329-15.5555 46.1227-15.5088 46.1279-15.1891C46.1352-14.7359 45.9167-14.6125 45.4461-14.6449ZM39.307-14.4097C39.1854-14.4052 39.0378-14.4012 38.9784-14.2981C38.71-13.8325 38.2325-13.6234 37.8298-13.3219C37.74-13.2547 37.6198-13.1932 37.6578-13.0364C37.7859-12.93 37.9422-12.9733 38.0851-12.9698C38.3986-12.9622 38.7131-12.9847 39.0261-12.9701C39.332-12.9558 39.6015-12.9021 39.4705-12.4646C39.3968-12.2183 39.4878-11.9806 39.6614-11.7792C39.8533-11.8943 39.8507-12.0717 39.8924-12.2248C39.9716-12.5154 40.08-12.7931 40.2511-13.0416C40.5841-13.5254 40.5755-13.6385 40.1099-13.9941C39.8856-14.1653 39.6537-14.3342 39.307-14.4097ZM61.4833-49.3748C61.5421-48.1672 60.9825-47.0143 61.1385-45.7745C62.0293-46.4393 62.5279-52.295 61.9127-53.3193C62.0158-52.5252 61.9221-51.7807 61.9056-51.0358C61.8999-50.7772 61.9909-50.4246 61.5703-50.3306C61.5284-50.3213 61.501-50.1739 61.4958-50.0888C61.4831-49.88 61.4874-49.6701 61.4833-49.3748ZM43.7857-13.6894C44.2444-13.535 44.2444-13.535 44.4087-13.7235C44.344-13.8335 44.2317-13.8203 44.1309-13.8243C43.6093-13.8449 43.0868-13.8429 42.5684-13.9242C42.3577-13.9573 42.1511-13.9035 41.9592-13.8119C40.8564-13.2855 40.2626-12.3949 40.1018-11.1991C40.0905-11.1149 40.0803-11.0157 40.2154-10.9463C40.529-11.0089 40.8343-11.1673 41.124-11.3424C41.3595-11.4847 41.4713-11.6624 41.16-11.8884C40.8289-12.1289 40.8418-12.3599 41.1789-12.5854C41.3631-12.7086 41.5672-12.8147 41.777-12.8838C42.0819-12.9843 42.3239-13.1294 42.541-13.3854C42.8375-13.7348 43.2511-13.8668 43.7857-13.6894ZM49.4231-17.7319C49.0321-17.6528 48.7101-17.3204 48.2691-17.3635C48.2296-17.6989 48.489-17.8948 48.5049-18.2132C47.7826-17.9617 47.6107-17.3134 47.1898-16.6825C47.4828-16.7994 47.6128-16.8306 47.8073-16.7066C48.1129-16.5116 48.4574-16.3975 48.8802-16.6375C49.2693-16.8584 49.5597-17.1652 49.8977-17.4288C50.6705-18.0315 51.5203-18.4869 52.4707-18.7531C51.9335-18.7111 51.4094-18.6448 50.9176-18.4017C50.4492-18.1701 49.9643-17.972 49.4231-17.7319ZM46.2133-18.9378C45.6596-18.9275 45.1783-18.7552 44.8745-18.2659C44.5943-17.8147 44.7576-17.4729 45.2734-17.3742C45.4961-17.5993 45.4051-17.9876 45.685-18.1951C46.0409-18.0569 46.0427-17.6196 46.3356-17.4189C46.4617-17.5921 46.5433-17.7622 46.675-17.8726C46.9228-18.0803 46.9419-18.3378 46.8671-18.6044C46.7892-18.8819 46.5292-18.9083 46.2133-18.9378ZM40.6777-10.1784C40.6255-10.4191 40.4616-10.3977 40.3009-10.321C39.5968-9.9847 38.9908-9.5089 38.4377-8.9655C38.3521-8.8814 38.2619-8.75 38.4099-8.5838C39.1251-8.7497 39.7749-9.1068 40.448-9.4104C40.8121-9.5746 40.9354-9.7686 40.6777-10.1784ZM43.7842-55.2129C43.7307-55.1155 43.5771-55.0771 43.5996-54.8983C45.22-56.4135 46.9152-57.7933 48.6446-59.1325C46.7042-58.2552 45.1209-56.9346 43.7842-55.2129ZM50.7813-51.0643C50.0067-50.5513 49.2321-50.0382 48.4575-49.5252C50.2752-50.2029 51.7701-51.355 53.1236-52.7146C52.3604-52.177 51.5973-51.6394 50.7813-51.0643ZM46.9687-11.7522C47.2372-12.2517 47.4622-12.764 47.5147-13.412C46.626-12.6908 46.1472-11.9584 46.2167-11.4666C46.4688-11.4982 46.7073-11.5653 46.9687-11.7522ZM48.4597-52.3068C48.1111-52.0773 47.7615-51.8495 47.4143-51.618C47.055-51.3783 46.6933-51.1417 46.3414-50.8916C46.0167-50.6609 45.7036-50.414 45.3854-50.1743C46.8149-50.9752 48.2237-51.7937 49.4763-52.8471C49.0992-52.7789 48.8199-52.5357 48.4597-52.3068ZM51.6172-57.2377C51.1083-56.816 50.6007-56.3931 50.1755-55.8813C51.4449-56.8273 52.7166-57.7693 53.7833-58.9537C53.0343-58.4495 52.3216-57.9002 51.6172-57.2377ZM45.7747-16.305C46.0064-15.9345 46.35-15.9093 46.5699-16.2471C46.6756-16.4095 46.7882-16.568 46.884-16.736C47.0219-16.9777 46.9844-17.1965 46.7768-17.3834C46.7321-17.2457 46.7372-17.113 46.7308-16.9809C46.7229-16.8194 46.7431-16.6246 46.5586-16.5552C46.3721-16.4852 46.2685-16.6564 46.1493-16.7646C46.0048-16.8957 45.939-17.1172 45.7141-17.1852C45.5989-16.882 45.6831-16.6263 45.7747-16.305ZM42.2289-12.4339C42.201-12.4045 42.1731-12.3751 42.1452-12.3457C42.1584-12.3398 42.1715-12.3289 42.1848-12.3287C42.5116-12.3232 42.8393-12.2992 43.1624-12.3636C43.1809-13.0448 43.7774-12.4685 43.977-12.7492C43.4346-13.4334 43.2101-13.4398 42.6926-12.7693C42.5793-12.6225 42.4653-12.4945 42.2289-12.4339ZM48.2106-15.2615C48.2458-15.4237 48.4066-15.5973 48.1796-15.7384C48.0105-15.8434 47.864-15.7532 47.7232-15.664C47.533-15.5434 47.4541-15.3786 47.5737-15.1709C47.817-14.7482 47.7485-14.3748 47.4279-14.0242C47.3693-13.9602 47.2622-13.8841 47.3888-13.7338C47.8824-14.1074 47.9332-14.7104 48.2106-15.2615ZM44.4689-18.1674C44.4513-18.2774 44.4892-18.4146 44.2913-18.4676C44.0078-18.1844 43.8006-17.8296 43.6023-17.4695C43.5499-17.3743 43.5381-17.2703 43.6357-17.1857C43.7333-17.1012 43.8169-17.1516 43.9195-17.192C44.3363-17.3562 44.5098-17.6575 44.4689-18.1674ZM38.308-42.3203C38.3279-42.3054 38.2695-42.2139 38.3585-42.2683C38.369-42.2748 38.3738-42.294 38.3772-42.3083C38.6231-43.3392 38.8232-44.3815 39.1411-45.3948C39.1509-45.426 39.1602-45.4831 39.0754-45.4839C38.616-44.5003 38.4866-43.4304 38.308-42.3203ZM41.505-14.1501C41.6941-14.3592 41.9905-14.3904 42.2336-14.5539C42.0353-14.8072 41.8167-14.7526 41.6198-14.6492C41.2576-14.4591 40.8793-14.2722 40.781-13.8088C40.9912-13.9527 41.1718-14.1289 41.505-14.1501ZM43.5181-48.4502C43.1206-47.9732 42.6383-47.5638 42.3474-47.0009C43.1797-47.8273 43.8942-48.7571 44.6889-49.6171C44.3132-49.2431 43.9375-48.8691 43.5181-48.4502ZM45.0846-16.2858C45.0745-16.3888 45.0754-16.4944 45.0517-16.5942C45.0133-16.7562 45.0711-16.994 44.8385-17.0317C44.6189-17.0674 44.4541-16.9396 44.3434-16.7124C44.6592-16.5328 44.6742-16.0746 45.1069-15.9803C45.1017-16.0805 45.0981-16.1521 45.0846-16.2858ZM43.4557-14.4766C44.0034-14.3492 44.1986-14.4518 44.4934-15.0452C43.9356-15.2567 43.7301-14.7839 43.4557-14.4766ZM59.7317-62.5617C59.9051-62.8206 60.0638-63.052 60.2226-63.2833C60.2064-63.2983 60.1902-63.3133 60.1739-63.3283C59.8846-63.0871 59.5952-62.8459 59.2508-62.5588C59.1673-62.921 59.0967-63.2278 59.0155-63.58C58.907-63.3615 59.0456-63.1429 58.8428-62.9708C58.5957-63.0731 58.4999-63.3624 58.244-63.5089C58.1667-63.3619 58.0561-63.3206 57.8842-63.4125C56.4162-64.1967 54.8459-64.6522 53.1972-64.8507C53.157-64.8555 53.1202-64.8883 53.0847-64.9066C53.0802-65.0273 53.1656-65.0689 53.2462-65.1045C54.4648-65.6424 55.7006-66.1292 57.0202-66.3659C57.2435-66.4059 57.4611-66.4086 57.6875-66.3703C58.0762-66.3047 58.448-66.3375 58.8188-66.5241C59.3939-66.8136 59.845-66.7103 60.1711-66.1641C60.4764-65.6528 60.8852-65.4774 61.4423-65.5295C61.5758-65.542 61.7115-65.5374 61.846-65.5333C62.4671-65.5146 62.8286-65.1533 62.7825-64.5305C62.747-64.0507 62.7152-63.5921 62.8746-63.117C62.9955-62.7564 62.7517-62.4555 62.4914-62.2166C62.1083-61.8649 61.6448-61.6561 61.1426-61.54C60.7528-61.4499 60.4467-61.6695 60.1528-61.8698C59.9405-62.0144 60.1521-62.1912 60.1736-62.3486C60.0601-62.5172 59.7321-62.1322 59.7317-62.5617ZM63.4201-62.2939C63.9923-62.0406 64.1125-61.5549 64.1867-61.0366C64.3042-60.216 64.3991-59.3951 64.2869-58.5318C63.3822-59.364 62.55-60.2499 61.5977-61.1037C62.1008-61.4858 62.5332-61.8463 62.8917-62.2849C63.0339-62.4589 63.2184-62.3716 63.4201-62.2939ZM32.4166-32.3225C32.1683-31.7537 31.7431-31.3807 31.235-30.9901C31.8244-30.8887 32.2484-31.2188 32.7286-31.2962C32.1138-30.5256 31.2858-30.2487 30.3403-30.2707C29.5213-30.2898 28.8737-30.6588 28.3416-31.2771C28.5011-31.4455 28.6595-31.3974 28.7972-31.3842C29.8699-31.2808 30.7619-31.6478 31.5111-32.4022C31.6059-32.4976 31.7044-32.5896 31.8043-32.6796C31.9381-32.8003 32.0716-32.9411 32.2748-32.8235C32.4606-32.7159 32.4789-32.5442 32.4166-32.3225ZM60.7202-32.7309C60.229-32.1051 59.632-31.6498 59.0458-31.1891C58.9303-31.3004 58.9604-31.3772 59.0021-31.4346C59.543-32.1791 59.8734-33.0726 60.6104-33.6802C60.8192-33.8524 60.9292-34.0961 60.9891-34.3732C61.1974-35.3377 61.9072-36.0088 62.3958-36.8882C62.6668-36.5424 62.7053-36.2515 62.6644-35.9307C62.5402-34.957 61.9212-34.2568 61.3509-33.529C61.1484-33.2705 60.9436-33.0139 60.7202-32.7309ZM29.1796-27.5336C30.9519-27.7632 32.2401-28.8275 33.5477-29.8852C33.3835-29.1338 32.9531-28.5762 32.4409-28.0886C32.0751-27.7404 31.6597-27.4411 31.2484-27.1449C30.8677-26.8708 30.4224-26.7963 29.966-26.8779C29.4545-26.9694 28.9586-27.1186 28.474-27.4276C28.7104-27.6084 28.9403-27.4825 29.1796-27.5336ZM53.2506-5.9105C53.0862-6.0545 52.9447-6.1771 52.6921-6.3959C53.74-6.4404 54.6495-6.8515 55.6224-6.3366C55.1592-5.6547 54.369-5.6144 53.7806-5.1697C53.6075-5.4153 53.4405-5.6522 53.2506-5.9105ZM54.5691-4.5613C54.3771-4.4049 54.2884-4.1693 54.0465-4.1266C53.5311-4.7357 54.2318-5.304 55.3964-5.8014C55.2778-5.2525 54.9175-4.9286 54.5691-4.5613ZM33.6847-36.5059C33.616-36.9833 33.408-37.4166 33.619-37.882C33.9678-36.8034 34.2335-35.7068 34.5455-34.6183C34.0877-35.1579 33.9048-35.8205 33.6847-36.5059ZM55.5983-6.8117C55.8073-6.8666 55.9908-6.9345 56.2027-6.8405C56.159-6.6196 56.0185-6.4924 55.8162-6.4973C55.677-6.5007 55.531-6.5905 55.5983-6.8117ZM44.5761-32.4426C43.7686-32.7496 43.0153-33.077 42.5076-33.8016C43.6078-33.0656 44.8433-32.6485 46.0722-32.19C45.5373-32.0292 45.0841-32.2969 44.5761-32.4426ZM51.8689-39.9798C51.6428-39.9948 51.4524-39.9034 51.2598-39.9919C51.822-40.4716 53.2485-40.3563 53.8897-39.7353C53.23-39.8229 52.5847-40.0598 51.8689-39.9798ZM43.8222-44.0883C44.3856-43.7715 44.9536-43.4995 45.1377-42.7704C44.8928-42.7974 44.8113-42.9464 44.7197-43.0676C44.4619-43.4088 44.0997-43.6216 43.7666-43.8716C43.6674-43.946 43.4789-44.0618 43.8222-44.0883ZM45.8336-36.0662C45.6947-35.9891 45.6342-36.0426 45.6736-36.1542C45.7393-36.3405 45.7433-36.597 46.0591-36.6045C46.1199-36.3606 45.9451-36.2401 45.8336-36.0662Z"/>
  </g>
  <g id="Ultralight-S" transform="matrix(1 0 0 1 513.711 696)">
   <path class="monochrome-0 multicolor-0:tintColor hierarchical-0:primary SFSymbolsPreviewWireframe" d="M42.2278-55.982C43.2236-56.932 44.164-57.9394 45.2112-58.8365C47.3255-60.6475 49.6714-61.9906 52.4389-62.531C54.3107-62.8965 56.149-62.8223 57.987-62.3142C58.7074-62.115 59.1666-61.7066 59.3995-61.0173C59.5668-60.5221 59.7255-60.024 59.8925-59.5134C59.9611-60.1465 59.6662-60.7427 59.703-61.365C59.9312-61.4595 60.0577-61.2934 60.2022-61.21C61.4229-60.5047 62.0647-59.3459 62.6196-58.1172C63.2261-56.7744 63.6099-55.3632 63.9379-53.9335C63.7678-55.8799 63.3415-57.7545 62.3825-59.4985C63.7706-58.5552 64.6639-57.1912 65.6165-55.8598C65.4351-56.312 65.2538-56.7642 65.0724-57.2163C65.7268-56.6721 66.1871-56.0046 66.5944-55.2981C68.1217-52.649 68.5027-49.7403 68.5985-46.7468C68.7085-43.306 67.6739-40.235 65.7738-37.4185C65.1604-36.5093 64.4582-35.672 63.5481-35.0364C63.4357-34.9579 63.3468-34.8106 63.0935-34.8592C65.2576-38.0842 67.1755-41.3779 67.0626-45.4206C66.7345-44.7108 66.4928-43.963 66.0287-43.3034C66.4122-44.9978 66.2799-46.6779 66.0332-48.3572C66.0215-47.269 65.9854-46.1834 65.8947-45.0983C65.8393-44.4343 65.7086-43.7879 65.4273-43.191C64.6884-41.6235 64.1807-39.949 63.2496-38.471C62.2127-36.8249 61.1465-35.1965 60.1426-33.5306C59.2295-32.0151 58.293-30.5179 57.1275-29.1844C55.7144-27.5676 54.09-26.2531 51.903-25.8314C51.644-25.7814 51.3801-25.7565 51.0513-25.7107C51.205-26.0365 51.4711-26.0788 51.6792-26.1814C52.7937-26.7307 53.9132-27.2649 54.8856-28.0609C55.4699-28.5392 55.9378-29.1199 56.418-29.6981C55.7986-29.0997 55.1084-28.5966 54.3837-28.1401C53.6538-27.6804 52.8827-27.3302 51.9212-27.211C52.1197-27.5288 52.4078-27.6157 52.551-27.9072C51.8436-27.7022 51.1965-27.3982 50.3624-27.3007C50.7527-27.7715 51.3019-27.8318 51.6546-28.3149C50.9749-28.2729 50.4066-28.1647 49.8733-27.9072C49.8001-27.8718 49.7584-27.7332 49.7368-27.6349C49.5783-26.9114 49.5464-26.1767 49.6534-25.4474C49.7802-24.5833 50.3172-23.958 50.9586-23.4149C51.7731-22.7252 52.6929-22.1894 53.594-21.6262C54.1268-21.2933 54.669-20.9717 55.1783-20.6052C56.9928-19.2993 58.0431-17.5212 58.4223-15.3235C58.7128-13.6399 58.7573-11.9668 58.3375-10.2983C58.0946-9.3331 57.7195-8.4258 57.1748-7.5891C57.0557-7.4063 56.9244-7.3217 56.6983-7.3366C56.3739-7.3581 56.0471-7.3421 55.5711-7.3421C56.197-8.3278 56.7174-9.2226 56.8968-10.2634C56.7023-9.8437 56.5259-9.4169 56.2893-9.0174C55.904-8.3669 55.425-7.8003 54.8816-7.2792C54.5648-6.9754 54.1522-6.9202 53.7656-6.8606C53.0915-6.7567 52.4048-6.734 51.7096-6.6761C51.6404-6.9603 51.8276-7.0973 51.9429-7.2538C52.4989-8.0084 52.3874-9.0538 51.6535-9.6696C50.6332-10.5257 49.4481-10.9721 48.117-11.0233C47.8179-11.0348 47.5181-11.03 47.2187-11.0278C47.0798-11.0268 46.946-11.0053 46.8849-10.7828C47.342-10.5754 47.8587-10.5971 48.3339-10.4607C49.0388-10.2584 49.7422-10.0592 50.4073-9.7426C50.8677-9.5235 51.2351-9.207 51.4803-8.7581C51.8872-8.0128 51.5119-7.0657 50.6731-7.0007C49.2391-6.8897 48.1178-6.1412 46.9495-5.4478C46.6193-5.2518 46.4845-4.9755 46.4118-4.5023C47.2954-5.6234 48.6495-5.7137 49.6755-6.4014C49.8927-6.547 50.1486-6.6088 50.3883-6.3216C50.5891-6.0809 50.916-6.1278 51.1913-6.2135C51.7171-6.3772 52.0858-6.1606 52.409-5.776C52.8978-5.1942 53.2614-4.5498 53.4427-3.8066C53.5009-3.568 53.4635-3.3769 53.2818-3.1951C51.6612-1.5733 49.982-0.0245 48.0814 1.2763C47.5395 1.6471 46.9774 1.7769 46.3572 1.7878C41.3428 1.8761 36.5091 1.0165 31.8566-0.8896C28.634-2.21 25.6563-3.934 22.8978-6.0488C22.6725-6.2215 22.4771-6.4341 22.2478-6.6008C21.8636-6.8802 21.6652-7.2003 21.922-7.6674C21.9982-7.8058 21.9343-7.9262 21.8816-8.051C20.8678-10.4538 21.2162-12.6621 22.8418-14.7042C22.63-14.692 22.6064-14.4 22.3163-14.4331C22.5306-14.953 22.7573-15.4419 23.0164-15.9205C24.1341-17.9856 25.9512-19.2643 27.9398-20.3712C29.807-21.4105 31.83-22.1582 33.5876-23.4002C34.0276-23.7111 34.4653-24.0253 34.9048-24.337C35.0359-24.4299 35.1705-24.5654 35.3155-24.2822C35.7561-25.4496 35.9992-26.6348 36.2665-27.811C36.4428-28.5862 36.6472-29.3229 37.3784-29.7787C37.5787-29.9035 37.5791-30.1348 37.6099-30.3396C37.7325-31.1568 37.5726-31.9117 37.1241-32.6107C36.8737-33.0009 36.643-33.4043 36.4155-33.8085C35.9446-34.6455 35.5666-35.5209 35.3566-36.4651C35.2729-35.2811 35.5293-34.1457 35.8594-33.0014C35.6465-32.9783 35.6092-33.1217 35.5484-33.2287C34.5765-34.941 34.3028-36.797 34.4335-38.7312C34.5555-40.5365 34.8746-42.3099 35.3388-44.0596C34.5164-42.3961 34.106-40.6064 33.7437-38.7298C33.4041-39.4025 33.3598-40.793 34.3669-44.6657C33.7938-44.069 33.0672-41.2694 32.9026-39.7349C32.714-37.9774 32.8528-36.2542 33.3407-34.5391C32.8737-35.0197 32.6547-35.654 32.2812-36.224C32.0687-35.8828 32.1444-35.5041 31.9576-35.2143C31.7825-35.2465 31.817-35.3674 31.8391-35.4614C32.0902-36.531 31.9123-37.5901 31.7587-38.6479C31.5915-39.7997 31.6876-40.9491 31.8036-42.093C32.0567-44.5878 32.6608-47.0052 33.4878-49.3699C34.7445-52.963 36.5667-56.2125 39.2694-58.9306C39.6485-59.3118 39.9846-59.7351 40.409-60.072C38.7313-59.1461 35.2188-55.46 33.6873-52.2178C32.1775-49.0215 31.4533-45.6461 31.4376-42.0271C31.2142-42.227 31.2496-42.3979 31.2437-42.5485C31.1098-45.9652 31.5137-49.2944 32.853-52.4734C33.5571-54.1447 34.5542-55.6336 35.6925-57.0301C37.1273-58.7901 38.7472-60.352 40.632-61.6388C43.0257-63.2729 45.6426-64.3043 48.5204-64.6378C51.3014-64.9601 54.012-64.6779 56.607-63.5636C56.9934-63.3976 57.3529-63.1827 57.7008-62.9483C57.7593-62.9089 57.8071-62.8539 57.9177-62.7536C54.846-63.2502 51.9327-63.0045 49.1332-61.7662C46.2937-60.5103 44.0527-58.5377 42.2098-55.9969C42.0106-55.7956 41.8902-55.6079 41.7686-55.4181C41.2754-54.6484 40.8578-53.8382 40.4341-53.0294C38.8164-49.9413 37.8279-46.6456 37.1579-43.2416C37.1062-42.9791 37.1873-42.7719 37.373-42.5311C37.4545-42.7334 37.5234-42.8803 37.5719-43.0336C37.603-43.1318 37.6043-43.2394 37.6182-43.3429C37.8817-45.3055 38.3576-47.2193 39.0311-49.0771C39.8978-51.4683 40.8424-53.8286 42.2278-55.982ZM52.3785-37.6897C51.6117-38.1247 50.9072-38.6442 50.2481-39.2049C50.313-39.3689 50.4258-39.3629 50.5257-39.3892C52.0179-39.7809 53.4599-39.5776 54.8751-39.0308C55.6293-38.7395 56.3559-38.3883 57.0835-38.0384C57.3557-37.9075 57.6364-37.833 57.8091-38.1907C58.2121-39.0259 58.6084-39.8644 59.0119-40.6993C59.1041-40.8899 59.0827-41.0373 58.9083-41.1683C57.4863-42.2366 55.9785-43.1405 54.2278-43.5597C53.7629-43.671 53.2834-43.7209 52.7933-43.8019C52.8946-44.0038 53.0584-44.0205 53.1958-44.0324C53.7476-44.08 54.2971-44.1024 54.8424-43.9389C55.8152-43.647 56.691-43.1688 57.5105-42.5827C58.075-42.179 58.6234-41.7527 59.2308-41.2977C59.529-42.5153 60.1218-43.5758 60.4005-44.7353C60.7055-46.0042 60.5554-47.2131 59.7078-48.2994C59.102-49.0757 58.4935-49.8626 58.0616-50.7571C57.8725-51.1488 57.6619-51.123 57.3688-50.8976C55.9392-49.7988 54.2818-49.3031 52.5268-49.0353C50.444-48.7174 48.3628-48.3804 46.3398-47.7675C46.1785-47.7186 45.976-47.7215 45.8933-47.5188C45.9894-47.239 46.3434-47.1119 46.3375-46.7377C46.0356-46.7156 45.8736-46.9435 45.6617-47.0563C45.418-47.186 45.2108-47.4118 44.8829-47.2946C43.8964-46.9419 42.9114-46.5847 42.0252-46.0131C41.7449-45.8323 41.4667-45.6295 41.3178-45.2988C41.6073-45.0951 41.9744-45.0414 42.1612-44.6859C41.7935-44.584 41.5392-44.9859 41.1344-44.8567C44.1004-43.7294 45.0327-42.3486 45.0334-41.4255C43.8396-41.6278 42.6247-41.7099 41.5052-42.19C40.9428-42.4312 40.4109-42.6195 39.7857-42.511C39.5887-42.4768 39.4527-42.4635 39.37-42.2712C38.967-41.3347 38.6013-40.3893 38.5589-39.3518C38.5367-38.8065 38.5623-38.2624 38.5543-37.6996C37.7886-38.6993 37.5549-39.9147 37.2499-41.1109C37.0665-41.0126 37.0573-40.9204 37.0327-40.8342C36.7619-39.8845 36.5621-38.9173 36.4338-37.9409C36.3126-37.0182 36.2955-36.0972 36.7674-35.2292C38.0212-32.9227 39.6494-30.8999 41.4381-28.9964C41.8986-28.5063 42.4852-28.3225 43.1446-28.3487C43.5481-28.3648 43.9508-28.3987 44.3543-28.4108C46.3303-28.4705 48.295-28.6399 50.23-29.059C51.931-29.4275 53.5211-30.0226 54.8281-31.2483C55.4076-31.7918 55.7498-32.5276 56.4996-32.9545C57.1354-33.3165 58.4066-35.5033 58.6914-36.3022C57.4692-34.5617 56.1718-33.0716 54.3413-32.1339C54.5191-32.5154 54.7522-32.8499 55.0031-33.1705C55.6969-34.0568 56.3429-34.9724 56.7726-36.0211C56.964-36.4881 56.7186-36.788 56.2021-36.736C56.0967-36.5961 56.2863-36.4143 56.1349-36.2713C55.8748-36.3242 55.7247-36.6306 55.433-36.5943C55.3192-36.5018 55.384-36.3092 55.191-36.2545C54.9833-36.5271 54.6285-36.5685 54.3593-36.7114C53.7277-37.0467 53.0533-37.2961 52.3785-37.6897ZM41.4-3.4133C41.7592-3.9385 41.4303-4.4708 41.4329-5.0114C40.597-4.0638 39.985-2.9435 38.9311-2.0838C38.9123-2.266 38.884-2.3326 38.9038-2.3786C39.2669-3.2222 39.7648-3.9986 40.116-4.8518C40.2454-5.1659 40.5731-5.398 40.8092-5.6685C41.6652-6.6496 42.5365-7.6197 43.141-8.7881C43.2174-8.9357 43.3278-9.0832 43.282-9.3328C42.3655-8.5312 41.6339-7.62 40.7886-6.8161C40.8605-7.2035 41.1518-7.4918 41.2086-7.9443C40.7608-7.6439 40.5556-7.207 40.2144-6.9024C39.8816-6.6053 39.6173-6.2173 39.059-6.0155C39.5504-6.9892 40.2249-7.7195 40.7479-8.6331C40.3372-8.6293 40.1482-8.4689 39.9649-8.3251C39.0296-7.5918 38.2981-6.6932 37.8485-5.5867C37.4754-4.6681 37.0675-3.773 36.4253-3.0038C36.3536-2.9179 36.2538-2.8301 36.3192-2.6488C37.1312-2.9099 37.7682-3.4847 38.6133-3.9671C38.4428-2.9947 38.256-2.1402 38.4437-1.2671C39.6485-1.6816 40.6501-2.3193 41.4-3.4133ZM37.3497-23.4083C37.6188-23.2649 37.7166-23.5224 37.8448-23.6452C39.0369-24.7872 40.3281-25.7969 41.7549-26.6305C42.0857-26.8238 42.415-27.0195 42.8553-27.2791C40.769-27.745 39.8648-29.4624 38.58-30.9178C38.149-28.3575 38.1301-25.8441 37.3497-23.4083ZM37.3635-6.2639C37.8414-6.777 38.1921-7.3756 38.6251-8.0292C38.0129-8.1214 37.4991-8.193 37.0121-7.9379C36.5492-7.6954 36.107-7.4137 35.6515-7.1568C35.4194-7.0259 35.1994-6.8445 34.7754-6.8987C36.1454-8.1969 37.5265-9.3443 38.6589-10.7435C37.3265-10.2162 36.2762-9.2643 35.1328-8.4484C35.6361-9.2842 36.4625-9.7901 37.1458-10.4391C35.6481-9.7759 34.5049-8.7072 33.5722-7.3885C33.0651-6.6716 32.6725-5.909 32.5099-5.038C32.4782-4.868 32.457-4.6967 32.6036-4.5831C32.7611-4.4609 32.9189-4.5652 33.0595-4.6485C33.2137-4.7397 33.3652-4.8375 33.5078-4.9457C34.1823-5.4573 34.9055-5.7747 35.7878-5.7155C36.3408-5.6784 36.8968-5.7819 37.3635-6.2639ZM42.8873-18.6771C42.979-18.4418 43.1132-18.238 43.3928-18.2394C43.5997-18.2404 43.785-18.3651 43.8515-18.552C43.9893-18.9397 44.2003-19.3558 43.9861-19.7562C43.7603-20.1783 43.3075-20.1212 42.903-20.112C42.8287-20.1103 42.7537-20.1004 42.6807-20.0862C42.2711-20.0065 41.8671-19.9133 41.4501-20.0797C41.2619-20.1548 41.0283-20.114 40.9069-19.9603C40.4886-19.4307 39.8278-19.1557 39.4704-18.5691C39.3597-18.3874 39.2156-18.3121 38.994-18.3051C38.1334-18.2778 37.4488-17.4029 37.5925-16.5148C37.7279-16.5872 37.8519-16.6996 37.9887-16.7185C38.5076-16.7904 38.7849-17.0092 38.6156-17.5769C38.5958-17.6432 38.6393-17.723 38.7284-17.7454C38.8517-17.7398 38.9226-17.6463 38.9583-17.5565C39.1783-17.0033 39.7328-16.9914 40.1708-16.7919C40.2628-16.75 40.3667-16.7588 40.3997-16.8578C40.5748-17.383 41.1587-17.7357 41.0404-18.387C41.025-18.4718 40.9913-18.5993 41.1307-18.6581C41.266-18.5888 41.2856-18.4446 41.3438-18.3294C41.4787-18.0621 41.5883-17.7339 41.9537-17.7607C42.3411-17.7892 42.3898-18.154 42.5031-18.4436C42.5783-18.6355 42.5185-18.8853 42.7481-19.055C42.7972-18.9273 42.834-18.8317 42.8873-18.6771ZM44.3959-9.496C44.4115-9.5594 44.4756-9.6287 44.3584-9.6885C44.1453-9.4929 44.0532-9.2165 43.913-8.9754C43.3642-8.0309 42.8015-7.0909 42.5782-5.9996C42.5404-5.8147 42.4511-5.6266 42.6585-5.4218C43.1101-5.6207 43.5674-5.8348 44.0347-6.0243C44.5424-6.2303 44.6823-6.7694 45.0013-7.1346C45.2054-6.9949 45.0345-6.771 45.2002-6.6678C46.2401-6.7735 46.4282-7.0935 46.0874-8.1731C46.0353-8.1491 45.9421-8.0976 45.9371-8.1051C45.543-8.6938 45.822-9.4106 45.5667-10.0752C44.9512-9.4727 44.5489-8.7309 43.9891-8.1135C44.0177-8.5945 44.2273-9.009 44.3959-9.496ZM25.5965-16.6775C27.2882-17.1836 28.9799-17.6897 30.6739-18.1964C30.8172-17.8553 30.5769-17.3962 31.0763-17.2927C31.3366-17.2388 31.5946-17.2724 31.762-17.5114C32.068-17.9481 31.6883-18.2093 31.4497-18.5103C31.5253-18.563 31.5686-18.6036 31.6197-18.6271C33.2695-19.3882 34.8176-20.3141 36.2279-21.464C36.3652-21.576 36.5156-21.6397 36.6831-21.562C37.197-21.3235 37.7762-21.4555 38.3038-21.2565C38.622-21.1364 38.9333-21.253 39.0923-21.5919C39.2074-21.8372 39.1514-22.0693 38.9379-22.2347C38.6466-22.4603 38.3522-22.4115 38.0762-22.1928C37.9605-22.1011 37.865-21.9315 37.7091-21.96C37.0161-22.0862 36.2821-22.0996 35.7117-22.605C35.5008-22.7918 35.2731-22.9379 34.9852-22.8208C34.7125-22.7099 34.5398-22.4898 34.5798-22.19C34.6234-21.8632 34.8714-21.7378 35.1812-21.6839C35.4029-21.6453 35.6401-21.835 35.8531-21.6525C35.8034-21.4495 35.636-21.3868 35.5111-21.2881C33.6341-19.8048 31.5051-18.8078 29.2507-18.0546C28.01-17.64 26.7329-17.3251 25.5965-16.6775ZM37.1676-15.8035C37.0455-15.6582 36.7989-15.6036 36.7882-15.3853C36.7716-15.0468 36.5605-14.8469 36.3402-14.6427C36.0977-14.418 35.8863-14.1667 35.7071-13.8892C35.5618-13.6641 35.6218-12.5545 35.7913-12.3584C35.839-12.3032 35.9013-12.2548 35.9661-12.2213C36.3862-12.0044 37.4361-12.1736 37.8002-12.5143C37.6897-12.6177 37.5475-12.5832 37.419-12.6011C36.8433-12.6809 36.7422-12.9042 37.0613-13.3952C37.1694-13.5616 37.3115-13.689 37.4802-13.7925C37.7182-13.9384 37.9517-14.0918 38.1924-14.2453C38.0298-14.5702 37.572-14.5658 37.5146-14.9438C38.0321-15.1591 38.3246-15.1982 39.058-15.0623C39.4831-14.9834 39.4942-15.3228 39.6355-15.545C39.781-15.7739 39.6948-15.9192 39.4948-16.0653C38.8641-16.5262 38.0274-16.4516 37.1676-15.8035ZM35.3214-11.8081C35.6241-12.0485 35.3212-12.2023 35.2241-12.3641C35.1176-12.5415 34.9527-12.4386 34.8318-12.3582C34.5435-12.1665 34.2517-11.9564 34.1756-11.5965C34.1098-11.2856 33.9486-11.0573 33.7319-10.8407C33.2341-10.3429 33.0428-9.7209 32.9969-9.0246C33.625-9.1065 37.5672-11.2777 37.7345-11.6394C37.1105-11.6903 36.5098-11.6892 35.913-11.4999C35.3342-11.3162 34.8209-10.971 34.2365-10.7959C34.4561-11.2773 34.8698-11.5169 35.3214-11.8081ZM46.0644-21.0094C46.2707-21.3336 46.6416-21.5439 46.7751-21.9141C46.637-22.0228 46.5497-21.9931 46.4648-21.9649C45.9072-21.7795 45.613-21.2897 45.2639-20.8654C44.7649-21.4061 44.532-21.4561 44.0481-21.1649C43.9138-21.0841 43.8484-20.9813 43.9021-20.8317C43.9467-20.7072 43.987-20.5558 44.1463-20.5399C44.2989-20.5246 44.3308-20.6599 44.37-20.775C44.3973-20.8551 44.4065-20.9562 44.5496-20.9584C44.8972-20.5112 44.8506-19.9497 44.9394-19.4292C44.9834-19.1718 45.0463-19.0606 45.3411-19.1254C46.7355-19.4319 47.4028-20.5909 48.3084-21.5304C47.9436-21.7932 47.6849-21.7777 47.4249-21.4917C46.914-20.9297 46.3926-20.3756 45.5994-20.0588C45.6359-20.4483 45.8318-20.7033 46.0644-21.0094ZM41.785-10.0479C41.9818-9.8412 42.1687-9.9451 42.3397-10.0793C42.4941-10.2004 42.6442-10.3168 42.8457-10.3486C43.6618-10.4773 44.2785-11.0441 45.0168-11.3459C45.1321-11.3931 45.2235-11.5162 45.3073-11.6194C45.4513-11.7968 45.5796-11.9817 45.4042-12.2201C45.2369-12.4475 45.0443-12.3061 44.8798-12.248C44.3543-12.0623 43.8118-11.9566 43.2613-11.9344C42.6781-11.911 42.1667-11.9961 41.8089-11.2662C41.5829-10.8052 41.5339-10.5046 41.785-10.0479ZM42.3865-17.2436C41.8988-16.8366 41.192-16.7371 40.8382-16.1382C40.8047-16.0814 40.7209-16.0432 40.6525-16.0202C40.3511-15.9188 40.2131-15.6744 40.1072-15.4056C39.938-14.9759 40.0103-14.7211 40.4201-14.5761C40.7638-14.4545 41.0042-14.666 41.1343-14.9856C41.2124-15.1774 41.3232-15.3486 41.5363-15.3628C41.8046-15.3807 41.9251-15.5361 42.0273-15.7501C42.1179-15.9397 42.233-16.1307 42.4138-16.2364C42.8565-16.4952 42.8605-17.0002 43.1574-17.3586C42.8575-17.4622 42.657-17.3418 42.3865-17.2436ZM47.7474-19.0347C47.503-18.9934 47.2561-18.9298 47.2143-18.6426C47.1717-18.3491 47.151-18.0396 47.5104-17.8509C48.128-18.5555 49.045-18.8401 49.6646-19.5281C49.8802-19.3009 49.7981-19.1307 49.7957-18.9753C49.7914-18.7046 49.904-18.6258 50.1571-18.7049C50.5103-18.8154 50.9749-19.3866 50.9919-19.7446C50.9996-19.9062 50.9434-20.0316 50.792-20.1117C50.3419-20.3498 49.8021-20.2206 49.4949-19.81C49.4013-19.685 49.3237-19.4241 49.1666-19.4898C48.5692-19.7396 48.2129-19.3504 47.7474-19.0347ZM45.4461-14.6449C44.878-14.5367 44.7754-14.4296 44.7919-13.8921C44.7992-13.655 44.6698-13.389 44.8021-13.1896C44.9862-12.9121 45.2592-13.2187 45.5002-13.1625C45.9203-13.0647 46.1332-13.2728 46.1984-13.6889C46.2623-14.0964 46.4863-14.3631 46.9271-14.4093C47.2391-14.442 47.3355-14.6141 47.2112-14.9071C47.1589-15.0303 47.1124-15.1563 47.0696-15.2831C47.0051-15.4744 46.9372-15.6698 46.6777-15.611C46.4329-15.5555 46.1227-15.5088 46.1279-15.1891C46.1352-14.7359 45.9167-14.6125 45.4461-14.6449ZM39.307-14.4097C39.1854-14.4052 39.0378-14.4012 38.9784-14.2981C38.71-13.8325 38.2325-13.6234 37.8298-13.3219C37.74-13.2547 37.6198-13.1932 37.6578-13.0364C37.7859-12.93 37.9422-12.9733 38.0851-12.9698C38.3986-12.9622 38.7131-12.9847 39.0261-12.9701C39.332-12.9558 39.6015-12.9021 39.4705-12.4646C39.3968-12.2183 39.4878-11.9806 39.6614-11.7792C39.8533-11.8943 39.8507-12.0717 39.8924-12.2248C39.9716-12.5154 40.08-12.7931 40.2511-13.0416C40.5841-13.5254 40.5755-13.6385 40.1099-13.9941C39.8856-14.1653 39.6537-14.3342 39.307-14.4097ZM61.4833-49.3748C61.5421-48.1672 60.9825-47.0143 61.1385-45.7745C62.0293-46.4393 62.5279-52.295 61.9127-53.3193C62.0158-52.5252 61.9221-51.7807 61.9056-51.0358C61.8999-50.7772 61.9909-50.4246 61.5703-50.3306C61.5284-50.3213 61.501-50.1739 61.4958-50.0888C61.4831-49.88 61.4874-49.6701 61.4833-49.3748ZM43.7857-13.6894C44.2444-13.535 44.2444-13.535 44.4087-13.7235C44.344-13.8335 44.2317-13.8203 44.1309-13.8243C43.6093-13.8449 43.0868-13.8429 42.5684-13.9242C42.3577-13.9573 42.1511-13.9035 41.9592-13.8119C40.8564-13.2855 40.2626-12.3949 40.1018-11.1991C40.0905-11.1149 40.0803-11.0157 40.2154-10.9463C40.529-11.0089 40.8343-11.1673 41.124-11.3424C41.3595-11.4847 41.4713-11.6624 41.16-11.8884C40.8289-12.1289 40.8418-12.3599 41.1789-12.5854C41.3631-12.7086 41.5672-12.8147 41.777-12.8838C42.0819-12.9843 42.3239-13.1294 42.541-13.3854C42.8375-13.7348 43.2511-13.8668 43.7857-13.6894ZM49.4231-17.7319C49.0321-17.6528 48.7101-17.3204 48.2691-17.3635C48.2296-17.6989 48.489-17.8948 48.5049-18.2132C47.7826-17.9617 47.6107-17.3134 47.1898-16.6825C47.4828-16.7994 47.6128-16.8306 47.8073-16.7066C48.1129-16.5116 48.4574-16.3975 48.8802-16.6375C49.2693-16.8584 49.5597-17.1652 49.8977-17.4288C50.6705-18.0315 51.5203-18.4869 52.4707-18.7531C51.9335-18.7111 51.4094-18.6448 50.9176-18.4017C50.4492-18.1701 49.9643-17.972 49.4231-17.7319ZM46.2133-18.9378C45.6596-18.9275 45.1783-18.7552 44.8745-18.2659C44.5943-17.8147 44.7576-17.4729 45.2734-17.3742C45.4961-17.5993 45.4051-17.9876 45.685-18.1951C46.0409-18.0569 46.0427-17.6196 46.3356-17.4189C46.4617-17.5921 46.5433-17.7622 46.675-17.8726C46.9228-18.0803 46.9419-18.3378 46.8671-18.6044C46.7892-18.8819 46.5292-18.9083 46.2133-18.9378ZM40.6777-10.1784C40.6255-10.4191 40.4616-10.3977 40.3009-10.321C39.5968-9.9847 38.9908-9.5089 38.4377-8.9655C38.3521-8.8814 38.2619-8.75 38.4099-8.5838C39.1251-8.7497 39.7749-9.1068 40.448-9.4104C40.8121-9.5746 40.9354-9.7686 40.6777-10.1784ZM43.7842-55.2129C43.7307-55.1155 43.5771-55.0771 43.5996-54.8983C45.22-56.4135 46.9152-57.7933 48.6446-59.1325C46.7042-58.2552 45.1209-56.9346 43.7842-55.2129ZM50.7813-51.0643C50.0067-50.5513 49.2321-50.0382 48.4575-49.5252C50.2752-50.2029 51.7701-51.355 53.1236-52.7146C52.3604-52.177 51.5973-51.6394 50.7813-51.0643ZM46.9687-11.7522C47.2372-12.2517 47.4622-12.764 47.5147-13.412C46.626-12.6908 46.1472-11.9584 46.2167-11.4666C46.4688-11.4982 46.7073-11.5653 46.9687-11.7522ZM48.4597-52.3068C48.1111-52.0773 47.7615-51.8495 47.4143-51.618C47.055-51.3783 46.6933-51.1417 46.3414-50.8916C46.0167-50.6609 45.7036-50.414 45.3854-50.1743C46.8149-50.9752 48.2237-51.7937 49.4763-52.8471C49.0992-52.7789 48.8199-52.5357 48.4597-52.3068ZM51.6172-57.2377C51.1083-56.816 50.6007-56.3931 50.1755-55.8813C51.4449-56.8273 52.7166-57.7693 53.7833-58.9537C53.0343-58.4495 52.3216-57.9002 51.6172-57.2377ZM45.7747-16.305C46.0064-15.9345 46.35-15.9093 46.5699-16.2471C46.6756-16.4095 46.7882-16.568 46.884-16.736C47.0219-16.9777 46.9844-17.1965 46.7768-17.3834C46.7321-17.2457 46.7372-17.113 46.7308-16.9809C46.7229-16.8194 46.7431-16.6246 46.5586-16.5552C46.3721-16.4852 46.2685-16.6564 46.1493-16.7646C46.0048-16.8957 45.939-17.1172 45.7141-17.1852C45.5989-16.882 45.6831-16.6263 45.7747-16.305ZM42.2289-12.4339C42.201-12.4045 42.1731-12.3751 42.1452-12.3457C42.1584-12.3398 42.1715-12.3289 42.1848-12.3287C42.5116-12.3232 42.8393-12.2992 43.1624-12.3636C43.1809-13.0448 43.7774-12.4685 43.977-12.7492C43.4346-13.4334 43.2101-13.4398 42.6926-12.7693C42.5793-12.6225 42.4653-12.4945 42.2289-12.4339ZM48.2106-15.2615C48.2458-15.4237 48.4066-15.5973 48.1796-15.7384C48.0105-15.8434 47.864-15.7532 47.7232-15.664C47.533-15.5434 47.4541-15.3786 47.5737-15.1709C47.817-14.7482 47.7485-14.3748 47.4279-14.0242C47.3693-13.9602 47.2622-13.8841 47.3888-13.7338C47.8824-14.1074 47.9332-14.7104 48.2106-15.2615ZM44.4689-18.1674C44.4513-18.2774 44.4892-18.4146 44.2913-18.4676C44.0078-18.1844 43.8006-17.8296 43.6023-17.4695C43.5499-17.3743 43.5381-17.2703 43.6357-17.1857C43.7333-17.1012 43.8169-17.1516 43.9195-17.192C44.3363-17.3562 44.5098-17.6575 44.4689-18.1674ZM38.308-42.3203C38.3279-42.3054 38.2695-42.2139 38.3585-42.2683C38.369-42.2748 38.3738-42.294 38.3772-42.3083C38.6231-43.3392 38.8232-44.3815 39.1411-45.3948C39.1509-45.426 39.1602-45.4831 39.0754-45.4839C38.616-44.5003 38.4866-43.4304 38.308-42.3203ZM41.505-14.1501C41.6941-14.3592 41.9905-14.3904 42.2336-14.5539C42.0353-14.8072 41.8167-14.7526 41.6198-14.6492C41.2576-14.4591 40.8793-14.2722 40.781-13.8088C40.9912-13.9527 41.1718-14.1289 41.505-14.1501ZM43.5181-48.4502C43.1206-47.9732 42.6383-47.5638 42.3474-47.0009C43.1797-47.8273 43.8942-48.7571 44.6889-49.6171C44.3132-49.2431 43.9375-48.8691 43.5181-48.4502ZM45.0846-16.2858C45.0745-16.3888 45.0754-16.4944 45.0517-16.5942C45.0133-16.7562 45.0711-16.994 44.8385-17.0317C44.6189-17.0674 44.4541-16.9396 44.3434-16.7124C44.6592-16.5328 44.6742-16.0746 45.1069-15.9803C45.1017-16.0805 45.0981-16.1521 45.0846-16.2858ZM43.4557-14.4766C44.0034-14.3492 44.1986-14.4518 44.4934-15.0452C43.9356-15.2567 43.7301-14.7839 43.4557-14.4766ZM59.7317-62.5617C59.9051-62.8206 60.0638-63.052 60.2226-63.2833C60.2064-63.2983 60.1902-63.3133 60.1739-63.3283C59.8846-63.0871 59.5952-62.8459 59.2508-62.5588C59.1673-62.921 59.0967-63.2278 59.0155-63.58C58.907-63.3615 59.0456-63.1429 58.8428-62.9708C58.5957-63.0731 58.4999-63.3624 58.244-63.5089C58.1667-63.3619 58.0561-63.3206 57.8842-63.4125C56.4162-64.1967 54.8459-64.6522 53.1972-64.8507C53.157-64.8555 53.1202-64.8883 53.0847-64.9066C53.0802-65.0273 53.1656-65.0689 53.2462-65.1045C54.4648-65.6424 55.7006-66.1292 57.0202-66.3659C57.2435-66.4059 57.4611-66.4086 57.6875-66.3703C58.0762-66.3047 58.448-66.3375 58.8188-66.5241C59.3939-66.8136 59.845-66.7103 60.1711-66.1641C60.4764-65.6528 60.8852-65.4774 61.4423-65.5295C61.5758-65.542 61.7115-65.5374 61.846-65.5333C62.4671-65.5146 62.8286-65.1533 62.7825-64.5305C62.747-64.0507 62.7152-63.5921 62.8746-63.117C62.9955-62.7564 62.7517-62.4555 62.4914-62.2166C62.1083-61.8649 61.6448-61.6561 61.1426-61.54C60.7528-61.4499 60.4467-61.6695 60.1528-61.8698C59.9405-62.0144 60.1521-62.1912 60.1736-62.3486C60.0601-62.5172 59.7321-62.1322 59.7317-62.5617ZM63.4201-62.2939C63.9923-62.0406 64.1125-61.5549 64.1867-61.0366C64.3042-60.216 64.3991-59.3951 64.2869-58.5318C63.3822-59.364 62.55-60.2499 61.5977-61.1037C62.1008-61.4858 62.5332-61.8463 62.8917-62.2849C63.0339-62.4589 63.2184-62.3716 63.4201-62.2939ZM32.4166-32.3225C32.1683-31.7537 31.7431-31.3807 31.235-30.9901C31.8244-30.8887 32.2484-31.2188 32.7286-31.2962C32.1138-30.5256 31.2858-30.2487 30.3403-30.2707C29.5213-30.2898 28.8737-30.6588 28.3416-31.2771C28.5011-31.4455 28.6595-31.3974 28.7972-31.3842C29.8699-31.2808 30.7619-31.6478 31.5111-32.4022C31.6059-32.4976 31.7044-32.5896 31.8043-32.6796C31.9381-32.8003 32.0716-32.9411 32.2748-32.8235C32.4606-32.7159 32.4789-32.5442 32.4166-32.3225ZM60.7202-32.7309C60.229-32.1051 59.632-31.6498 59.0458-31.1891C58.9303-31.3004 58.9604-31.3772 59.0021-31.4346C59.543-32.1791 59.8734-33.0726 60.6104-33.6802C60.8192-33.8524 60.9292-34.0961 60.9891-34.3732C61.1974-35.3377 61.9072-36.0088 62.3958-36.8882C62.6668-36.5424 62.7053-36.2515 62.6644-35.9307C62.5402-34.957 61.9212-34.2568 61.3509-33.529C61.1484-33.2705 60.9436-33.0139 60.7202-32.7309ZM29.1796-27.5336C30.9519-27.7632 32.2401-28.8275 33.5477-29.8852C33.3835-29.1338 32.9531-28.5762 32.4409-28.0886C32.0751-27.7404 31.6597-27.4411 31.2484-27.1449C30.8677-26.8708 30.4224-26.7963 29.966-26.8779C29.4545-26.9694 28.9586-27.1186 28.474-27.4276C28.7104-27.6084 28.9403-27.4825 29.1796-27.5336ZM53.2506-5.9105C53.0862-6.0545 52.9447-6.1771 52.6921-6.3959C53.74-6.4404 54.6495-6.8515 55.6224-6.3366C55.1592-5.6547 54.369-5.6144 53.7806-5.1697C53.6075-5.4153 53.4405-5.6522 53.2506-5.9105ZM54.5691-4.5613C54.3771-4.4049 54.2884-4.1693 54.0465-4.1266C53.5311-4.7357 54.2318-5.304 55.3964-5.8014C55.2778-5.2525 54.9175-4.9286 54.5691-4.5613ZM33.6847-36.5059C33.616-36.9833 33.408-37.4166 33.619-37.882C33.9678-36.8034 34.2335-35.7068 34.5455-34.6183C34.0877-35.1579 33.9048-35.8205 33.6847-36.5059ZM55.5983-6.8117C55.8073-6.8666 55.9908-6.9345 56.2027-6.8405C56.159-6.6196 56.0185-6.4924 55.8162-6.4973C55.677-6.5007 55.531-6.5905 55.5983-6.8117ZM44.5761-32.4426C43.7686-32.7496 43.0153-33.077 42.5076-33.8016C43.6078-33.0656 44.8433-32.6485 46.0722-32.19C45.5373-32.0292 45.0841-32.2969 44.5761-32.4426ZM51.8689-39.9798C51.6428-39.9948 51.4524-39.9034 51.2598-39.9919C51.822-40.4716 53.2485-40.3563 53.8897-39.7353C53.23-39.8229 52.5847-40.0598 51.8689-39.9798ZM43.8222-44.0883C44.3856-43.7715 44.9536-43.4995 45.1377-42.7704C44.8928-42.7974 44.8113-42.9464 44.7197-43.0676C44.4619-43.4088 44.0997-43.6216 43.7666-43.8716C43.6674-43.946 43.4789-44.0618 43.8222-44.0883ZM45.8336-36.0662C45.6947-35.9891 45.6342-36.0426 45.6736-36.1542C45.7393-36.3405 45.7433-36.597 46.0591-36.6045C46.1199-36.3606 45.9451-36.2401 45.8336-36.0662Z"/>
  </g>
 </g>
</svg>
